<!DOCTYPE svg PUBLIC "-//W3C//DTD SVG 20010904//EN" "http://www.w3.org/TR/2001/REC-SVG-20010904/DTD/svg10.dtd">
<svg version="1.0" xmlns="http://www.w3.org/2000/svg" width="900px" height="675px" viewBox="0 0 9000 6750" preserveAspectRatio="xMidYMid meet">
<g id="layer1" fill="#0706d4" stroke="none">
 <path d="M3037 4733 c-4 -4 -22 -7 -40 -8 -98 -3 -107 -5 -107 -21 0 -14 8 -16 63 -9 130 15 126 15 145 -13 40 -60 42 -76 42 -370 0 -256 -2 -292 -19 -337 -29 -78 -61 -94 -185 -97 -144 -4 -196 0 -213 13 -38 32 -43 72 -43 368 0 257 2 290 19 327 25 54 63 82 122 90 32 4 49 11 49 20 0 33 -117 4 -157 -39 -59 -63 -63 -88 -63 -405 l1 -287 28 -50 c40 -72 52 -76 216 -69 191 9 213 20 257 134 16 39 18 81 18 333 0 317 -2 332 -62 395 -30 30 -57 40 -71 25z"/>
 <path d="M3913 2830 c-41 -25 -79 -83 -92 -140 -6 -25 -11 -168 -11 -318 0 -249 2 -278 20 -333 40 -117 85 -153 217 -175 111 -18 123 -18 123 1 0 10 -10 15 -26 15 -15 0 -43 4 -63 10 -20 5 -58 12 -86 16 -41 5 -56 13 -87 46 -63 68 -70 116 -66 453 3 271 4 293 23 320 11 17 22 39 25 50 10 35 71 48 200 41 237 -13 250 -16 291 -53 26 -24 44 -53 58 -95 19 -57 21 -85 21 -356 0 -324 -6 -364 -62 -424 l-29 -31 -89 7 c-74 5 -90 4 -90 -7 0 -15 60 -27 138 -27 39 0 50 5 87 43 69 69 75 105 75 440 0 319 -9 375 -71 450 -47 57 -72 65 -230 76 -205 15 -239 14 -276 -9z"/>
 <path d="M4460 1720 c0 -5 7 -10 15 -10 8 0 15 5 15 10 0 6 -7 10 -15 10 -8 0 -15 -4 -15 -10z"/>
 <path d="M4365 1620 c-4 -7 -3 -16 3 -22 14 -14 45 -2 40 15 -6 16 -34 21 -43 7z"/>
 <path d="M4490 1595 c0 -8 7 -15 15 -15 8 0 15 7 15 15 0 8 -7 15 -15 15 -8 0 -15 -7 -15 -15z"/>
 <path d="M4302 1543 c5 -25 28 -28 28 -4 0 12 -6 21 -16 21 -9 0 -14 -7 -12 -17z"/>
 </g>
<g id="layer2" fill="#efa624" stroke="none">
 <path d="M4265 4930 c-16 -5 -95 -18 -174 -30 -120 -17 -149 -25 -178 -47 -37 -28 -78 -92 -94 -145 -14 -47 -13 -617 1 -669 7 -25 29 -60 55 -88 l44 -46 159 1 c245 2 264 6 327 67 82 80 85 98 85 475 l0 314 -26 59 c-39 86 -120 131 -199 109z m107 -45 c22 -9 39 -25 46 -42 45 -122 43 -107 40 -430 l-3 -308 -28 -51 c-52 -95 -68 -102 -285 -114 -188 -10 -228 -3 -250 43 -7 15 -17 27 -21 27 -24 0 -32 116 -29 395 3 281 4 291 26 335 49 94 76 108 242 131 47 6 103 15 125 19 63 12 100 11 137 -5z"/>
 <path d="M3960 3869 c-45 -10 -80 -38 -115 -94 l-30 -48 -3 -326 c-2 -207 0 -339 7 -361 18 -60 67 -125 108 -143 35 -14 263 -32 380 -29 56 1 97 24 132 72 49 68 52 96 49 460 -3 323 -4 337 -25 376 -12 22 -38 56 -59 73 l-37 33 -188 -4 c-103 -1 -202 -6 -219 -9z m437 -56 c19 -21 37 -50 40 -66 3 -15 10 -30 14 -33 5 -3 9 -153 9 -334 l0 -329 -25 -53 c-30 -63 -77 -98 -132 -98 -21 0 -114 5 -206 12 l-169 12 -32 37 c-17 20 -37 58 -44 83 -17 65 -17 617 1 666 17 50 68 118 92 123 11 3 72 6 135 7 63 1 117 3 119 6 2 2 40 4 84 4 79 0 79 0 114 -37z"/>
 <path d="M3380 2875 c0 -8 7 -15 15 -15 8 0 15 7 15 15 0 8 -7 15 -15 15 -8 0 -15 -7 -15 -15z"/>
 <path d="M3550 2865 c0 -9 9 -15 25 -15 16 0 25 6 25 15 0 9 -9 15 -25 15 -16 0 -25 -6 -25 -15z"/>
 <path d="M3270 2860 c0 -5 5 -10 10 -10 6 0 10 5 10 10 0 6 -4 10 -10 10 -5 0 -10 -4 -10 -10z"/>
 <path d="M3700 2820 c0 -5 5 -10 10 -10 6 0 10 5 10 10 0 6 -4 10 -10 10 -5 0 -10 -4 -10 -10z"/>
 <path d="M3760 2680 c0 -5 7 -10 15 -10 8 0 15 5 15 10 0 6 -7 10 -15 10 -8 0 -15 -4 -15 -10z"/>
 <path d="M3220 2081 c0 -5 5 -13 10 -16 6 -3 10 -2 10 4 0 5 -4 13 -10 16 -5 3 -10 2 -10 -4z"/>
 <path d="M3290 1990 c0 -5 7 -10 15 -10 8 0 15 5 15 10 0 6 -7 10 -15 10 -8 0 -15 -4 -15 -10z"/>
 <path d="M3340 1975 c0 -8 5 -15 10 -15 6 0 10 7 10 15 0 8 -4 15 -10 15 -5 0 -10 -7 -10 -15z"/>
 <path d="M3701 1970 c-13 -11 -38 -20 -57 -20 -24 0 -34 -5 -34 -15 0 -35 115 3 128 43 5 18 -9 14 -37 -8z"/>
 <path d="M3400 1965 c0 -8 5 -15 10 -15 6 0 10 7 10 15 0 8 -4 15 -10 15 -5 0 -10 -7 -10 -15z"/>
 <path d="M3470 1955 c0 -8 7 -15 15 -15 8 0 15 7 15 15 0 8 -7 15 -15 15 -8 0 -15 -7 -15 -15z"/>
 <path d="M3540 1945 c0 -8 5 -15 10 -15 6 0 10 7 10 15 0 8 -4 15 -10 15 -5 0 -10 -7 -10 -15z"/>
 </g>
<g id="layer3" fill="#8f8f8f" stroke="none">
 <path d="M2870 2905 c0 -9 9 -15 25 -15 16 0 25 6 25 15 0 9 -9 15 -25 15 -16 0 -25 -6 -25 -15z"/>
 <path d="M2705 2890 c-10 -11 -16 -23 -12 -26 6 -7 56 27 57 39 0 14 -27 7 -45 -13z"/>
 <path d="M3130 2801 c0 -12 6 -21 15 -21 8 0 15 4 15 9 0 5 -7 14 -15 21 -13 10 -15 9 -15 -9z"/>
 <path d="M4600 2775 c0 -8 5 -15 10 -15 6 0 10 7 10 15 0 8 -4 15 -10 15 -5 0 -10 -7 -10 -15z"/>
 <path d="M2640 2745 c0 -16 6 -25 15 -25 9 0 15 9 15 25 0 16 -6 25 -15 25 -9 0 -15 -9 -15 -25z"/>
 <path d="M4577 2743 c-4 -3 -7 -11 -7 -17 0 -6 5 -5 12 2 6 6 9 14 7 17 -3 3 -9 2 -12 -2z"/>
 <path d="M3150 2695 c0 -16 6 -25 15 -25 9 0 15 9 15 25 0 16 -6 25 -15 25 -9 0 -15 -9 -15 -25z"/>
 <path d="M5377 2689 c-54 -4 -114 -13 -133 -19 -30 -10 -34 -16 -35 -48 0 -20 -3 -31 -6 -24 -2 6 -11 12 -19 12 -12 0 -14 -38 -14 -229 l0 -229 27 -5 c62 -12 174 97 421 411 43 56 55 105 30 130 -14 14 -116 14 -271 1z m-170 -271 c-2 -29 -3 -8 -3 47 0 55 1 79 3 53 2 -26 2 -71 0 -100z"/>
 <path d="M4520 2610 c0 -5 7 -10 15 -10 8 0 15 5 15 10 0 6 -7 10 -15 10 -8 0 -15 -4 -15 -10z"/>
 <path d="M2640 2255 c0 -16 6 -25 15 -25 9 0 15 9 15 25 0 16 -6 25 -15 25 -9 0 -15 -9 -15 -25z"/>
 <path d="M3150 2195 c0 -16 6 -25 15 -25 9 0 15 9 15 25 0 16 -6 25 -15 25 -9 0 -15 -9 -15 -25z"/>
 <path d="M2650 2190 c0 -5 7 -10 15 -10 8 0 15 5 15 10 0 6 -7 10 -15 10 -8 0 -15 -4 -15 -10z"/>
 <path d="M3122 2080 c-24 -32 -27 -40 -12 -40 10 0 44 59 38 66 -3 2 -14 -10 -26 -26z"/>
 <path d="M2710 2090 c0 -5 5 -10 10 -10 6 0 10 5 10 10 0 6 -4 10 -10 10 -5 0 -10 -4 -10 -10z"/>
 <path d="M2920 2035 c0 -8 5 -15 10 -15 6 0 10 7 10 15 0 8 -4 15 -10 15 -5 0 -10 -7 -10 -15z"/>
 <path d="M2980 2025 c0 -8 5 -15 10 -15 6 0 10 7 10 15 0 8 -4 15 -10 15 -5 0 -10 -7 -10 -15z"/>
 <path d="M4525 1978 c4 -13 13 -30 21 -38 12 -12 14 -12 14 0 0 32 -13 60 -27 60 -10 0 -12 -6 -8 -22z"/>
 <path d="M5130 1979 c0 -11 5 -17 10 -14 6 3 10 13 10 21 0 8 -4 14 -10 14 -5 0 -10 -9 -10 -21z"/>
 <path d="M4582 1894 c3 -29 28 -47 28 -21 0 10 7 13 20 10 11 -3 20 -1 20 5 0 13 -7 17 -43 26 -26 6 -28 5 -25 -20z"/>
 <path d="M4690 1835 c0 -8 5 -15 10 -15 6 0 10 7 10 15 0 8 -4 15 -10 15 -5 0 -10 -7 -10 -15z"/>
 </g>
<g id="layer4" fill="#0a0aa8" stroke="none">
 <path d="M2905 4730 c-186 -29 -186 -29 -237 -115 -23 -40 -23 -43 -23 -350 0 -341 1 -349 63 -408 l30 -29 154 7 c165 8 189 15 232 65 52 62 58 110 54 437 -3 326 -1 314 -67 386 -29 32 -45 33 -206 7z m193 -33 c49 -52 52 -77 52 -385 0 -297 -1 -307 -42 -389 -18 -37 -73 -51 -218 -58 -153 -6 -166 -2 -200 65 -19 36 -20 60 -20 324 0 304 5 339 52 393 24 26 41 31 198 53 163 23 153 23 178 -3z"/>
 <path d="M3909 2842 c-70 -46 -132 -182 -84 -182 9 0 15 9 15 22 0 37 41 109 74 129 22 14 50 19 99 19 53 0 67 3 67 15 0 23 -136 21 -171 -3z"/>
 <path d="M4100 2838 c0 -12 23 -16 115 -21 73 -4 125 -12 144 -22 39 -20 77 -76 92 -137 12 -46 39 -68 39 -30 -1 65 -67 164 -135 200 -43 22 -255 31 -255 10z"/>
 <path d="M3802 2348 c3 -291 3 -293 29 -348 29 -62 80 -112 131 -129 49 -15 301 -51 364 -51 51 0 57 3 97 43 52 52 87 147 53 147 -8 0 -18 -19 -25 -47 -17 -67 -66 -113 -122 -113 -53 0 -323 38 -366 51 -49 15 -88 63 -112 135 -19 59 -21 86 -21 334 0 239 -2 270 -16 270 -14 0 -15 -32 -12 -292z"/>
 <path d="M4470 2305 c0 -220 2 -255 15 -255 13 0 15 35 15 255 0 220 -2 255 -15 255 -13 0 -15 -35 -15 -255z"/>
 <path d="M4870 1840 c-19 -5 -73 -13 -120 -20 -47 -6 -107 -16 -133 -21 -26 -5 -71 -9 -98 -9 -28 0 -59 -5 -69 -10 -30 -16 -170 -208 -170 -234 0 -36 33 -59 77 -54 171 20 316 53 398 89 77 34 267 232 250 260 -7 11 -86 10 -135 -1z"/>
 </g>
<g id="layer5" fill="#7b8306" stroke="none">
 <path d="M4622 4923 c-46 -23 -79 -66 -97 -128 -13 -45 -16 -107 -13 -377 l3 -323 28 -57 c16 -34 45 -70 68 -89 39 -30 47 -32 157 -40 64 -4 163 -8 220 -8 l102 -1 38 38 c67 67 72 98 72 440 0 234 -3 309 -15 348 -15 50 -70 125 -107 145 -15 8 -388 70 -417 69 -3 0 -21 -8 -39 -17z m248 -53 c63 -12 130 -24 148 -27 18 -3 32 -11 32 -19 0 -8 6 -11 15 -8 8 4 15 1 15 -5 0 -6 6 -11 14 -11 8 0 17 -14 21 -31 4 -17 13 -33 20 -35 17 -7 7 -44 -11 -44 -8 0 -14 -5 -14 -11 0 -6 9 -9 20 -6 24 6 37 -10 21 -26 -14 -14 -14 -42 1 -67 10 -15 10 -22 0 -32 -15 -15 -17 -304 -2 -313 17 -10 11 -69 -10 -95 -23 -29 -26 -50 -6 -50 20 0 26 -33 10 -55 -8 -10 -14 -28 -14 -38 0 -17 -2 -18 -16 -6 -15 12 -16 11 -10 -9 7 -22 0 -27 -31 -23 -7 1 -13 -5 -13 -14 0 -13 -12 -15 -82 -9 -104 7 -108 8 -101 33 5 19 1 21 -35 21 -23 0 -44 5 -47 10 -10 17 -75 12 -75 -5 0 -9 9 -15 23 -15 13 0 32 -6 42 -14 18 -13 14 -14 -30 -10 -28 1 -62 3 -77 4 -25 0 -28 3 -28 36 0 31 -3 36 -20 31 -13 -3 -20 0 -20 9 0 8 7 14 15 14 13 0 15 7 9 38 -9 49 -22 62 -39 38 -8 -10 -16 -24 -19 -30 -3 -7 -8 -6 -15 4 -8 11 -6 17 9 22 21 8 27 33 10 43 -6 4 -18 1 -28 -7 -16 -12 -16 -11 0 13 16 25 14 79 -3 79 -13 0 -12 377 1 385 5 3 8 34 6 71 -2 35 0 67 5 70 5 3 9 14 9 25 0 10 5 19 10 19 6 0 10 -7 10 -15 0 -8 5 -15 11 -15 7 0 9 9 6 22 -5 17 2 30 26 53 38 37 63 38 237 5z"/>
 <path d="M4960 4815 c0 -8 5 -15 10 -15 6 0 10 7 10 15 0 8 -4 15 -10 15 -5 0 -10 -7 -10 -15z"/>
 <path d="M4610 4230 c0 -11 7 -20 15 -20 8 0 15 9 15 20 0 11 -7 20 -15 20 -8 0 -15 -9 -15 -20z"/>
 <path d="M4670 3984 c0 -9 5 -14 12 -12 18 6 21 28 4 28 -9 0 -16 -7 -16 -16z"/>
 <path d="M4910 3975 c0 -8 9 -15 20 -15 11 0 20 7 20 15 0 8 -9 15 -20 15 -11 0 -20 -7 -20 -15z"/>
 <path d="M4995 3981 c-10 -17 4 -31 31 -31 19 0 25 5 22 18 -4 19 -43 29 -53 13z"/>
 <path d="M4160 4905 c0 -8 5 -15 10 -15 6 0 10 7 10 15 0 8 -4 15 -10 15 -5 0 -10 -7 -10 -15z"/>
 <path d="M4020 4885 c0 -8 5 -15 10 -15 6 0 10 7 10 15 0 8 -4 15 -10 15 -5 0 -10 -7 -10 -15z"/>
 <path d="M4400 4890 c0 -5 5 -10 10 -10 6 0 10 5 10 10 0 6 -4 10 -10 10 -5 0 -10 -4 -10 -10z"/>
 <path d="M3920 4860 c0 -5 5 -10 10 -10 6 0 10 5 10 10 0 6 -4 10 -10 10 -5 0 -10 -4 -10 -10z"/>
 <path d="M4460 4791 c0 -12 6 -21 15 -21 8 0 15 4 15 9 0 5 -7 14 -15 21 -13 10 -15 9 -15 -9z"/>
 <path d="M4470 4440 c0 -224 2 -260 15 -260 13 0 15 36 15 260 0 224 -2 260 -15 260 -13 0 -15 -36 -15 -260z"/>
 <path d="M3800 4625 c0 -8 7 -15 15 -15 8 0 15 7 15 15 0 8 -7 15 -15 15 -8 0 -15 -7 -15 -15z"/>
 <path d="M4410 3990 c0 -5 5 -10 10 -10 6 0 10 5 10 10 0 6 -4 10 -10 10 -5 0 -10 -4 -10 -10z"/>
 <path d="M4140 3915 c0 -8 7 -15 15 -15 8 0 15 7 15 15 0 8 -7 15 -15 15 -8 0 -15 -7 -15 -15z"/>
 <path d="M4240 3875 c0 -8 9 -15 20 -15 11 0 20 7 20 15 0 8 -9 15 -20 15 -11 0 -20 -7 -20 -15z"/>
 <path d="M4340 3875 c0 -8 5 -15 10 -15 6 0 10 7 10 15 0 8 -4 15 -10 15 -5 0 -10 -7 -10 -15z"/>
 <path d="M4645 3876 c-43 -20 -90 -73 -114 -129 -20 -46 -21 -68 -21 -365 0 -297 1 -321 21 -372 23 -60 58 -103 104 -127 25 -14 57 -15 210 -9 99 4 193 9 209 13 44 9 109 82 129 143 14 44 17 98 17 342 0 265 -2 294 -21 353 -16 51 -30 73 -65 104 -43 37 -49 40 -127 45 -225 15 -312 16 -342 2z m215 -38 c117 2 192 -8 198 -27 2 -6 9 -11 15 -11 7 -1 23 -10 36 -20 19 -17 23 -27 18 -55 -5 -30 -3 -35 14 -35 14 0 19 -7 19 -25 0 -14 -6 -25 -12 -25 -10 0 -13 -48 -11 -213 0 -116 2 -216 3 -222 1 -5 2 -14 1 -19 -1 -4 3 -14 9 -21 8 -9 4 -19 -14 -36 -25 -24 -27 -59 -5 -83 15 -16 10 -32 -16 -58 -18 -18 -33 -24 -55 -22 -17 2 -30 -1 -30 -6 0 -6 -7 -10 -15 -10 -8 0 -15 5 -15 10 0 18 -28 11 -35 -9 -4 -14 -19 -20 -61 -26 -73 -9 -78 -1 -9 14 78 18 72 37 -15 45 -74 8 -90 4 -90 -20 0 -8 -9 -14 -20 -14 -11 0 -20 4 -20 9 0 12 -59 11 -66 0 -7 -12 -32 14 -27 27 2 7 0 15 -6 18 -7 5 -7 15 -1 32 11 28 13 107 4 142 -9 31 -34 28 -34 -5 0 -14 -3 -24 -6 -21 -3 3 -5 105 -4 226 0 156 -3 223 -11 228 -8 4 -9 25 -5 61 5 42 3 55 -8 59 -18 7 -9 34 11 34 9 0 13 6 9 15 -3 9 0 15 9 15 8 0 22 11 31 24 16 26 46 36 79 28 11 -3 72 -5 135 -4z m-290 -714 c0 -8 -4 -12 -10 -9 -5 3 -10 13 -10 21 0 8 5 12 10 9 6 -3 10 -13 10 -21z m47 -76 c-3 -8 -6 -5 -6 6 -1 11 2 17 5 13 3 -3 4 -12 1 -19z"/>
 <path d="M5004 3749 c-10 -17 13 -36 27 -22 12 12 4 33 -11 33 -5 0 -12 -5 -16 -11z"/>
 <path d="M4614 3739 c-10 -17 13 -36 27 -22 12 12 4 33 -11 33 -5 0 -12 -5 -16 -11z"/>
 <path d="M4790 3405 c0 -24 5 -35 15 -35 10 0 15 11 15 35 0 24 -5 35 -15 35 -10 0 -15 -11 -15 -35z"/>
 <path d="M4831 3041 c-11 -7 -4 -12 25 -20 21 -6 49 -11 62 -11 12 0 31 -6 42 -12 15 -10 22 -10 32 0 11 11 8 17 -12 32 -27 21 -122 28 -149 11z"/>
 <path d="M5041 3031 c-21 -14 -5 -41 24 -41 29 0 45 27 24 41 -8 5 -18 9 -24 9 -5 0 -16 -4 -24 -9z"/>
 <path d="M4010 3865 c0 -8 9 -15 20 -15 11 0 20 7 20 15 0 8 -9 15 -20 15 -11 0 -20 -7 -20 -15z"/>
 <path d="M4400 3840 c0 -5 5 -10 10 -10 6 0 10 5 10 10 0 6 -4 10 -10 10 -5 0 -10 -4 -10 -10z"/>
 <path d="M4440 3791 c0 -5 5 -13 10 -16 6 -3 10 -2 10 4 0 5 -4 13 -10 16 -5 3 -10 2 -10 -4z"/>
 <path d="M3800 3665 c0 -8 7 -15 15 -15 8 0 15 7 15 15 0 8 -7 15 -15 15 -8 0 -15 -7 -15 -15z"/>
 <path d="M4470 3375 c0 -264 2 -305 15 -305 13 0 15 41 15 305 0 264 -2 305 -15 305 -13 0 -15 -41 -15 -305z"/>
 <path d="M6390 3355 c0 -8 7 -15 15 -15 8 0 15 7 15 15 0 8 -7 15 -15 15 -8 0 -15 -7 -15 -15z"/>
 <path d="M6710 3355 c0 -8 5 -15 10 -15 6 0 10 7 10 15 0 8 -4 15 -10 15 -5 0 -10 -7 -10 -15z"/>
 <path d="M6260 3290 c0 -5 5 -10 10 -10 6 0 10 5 10 10 0 6 -4 10 -10 10 -5 0 -10 -4 -10 -10z"/>
 <path d="M6185 3230 c-21 -22 -36 -43 -32 -47 8 -7 87 65 87 79 0 17 -17 7 -55 -32z"/>
 <path d="M6700 3250 c0 -5 5 -10 10 -10 6 0 10 5 10 10 0 6 -4 10 -10 10 -5 0 -10 -4 -10 -10z"/>
 <path d="M6660 3205 c-7 -9 -10 -18 -7 -22 8 -7 37 15 37 28 0 14 -16 11 -30 -6z"/>
 <path d="M3800 3150 c0 -5 7 -10 15 -10 8 0 15 5 15 10 0 6 -7 10 -15 10 -8 0 -15 -4 -15 -10z"/>
 <path d="M6115 3149 c-4 -6 -5 -13 -2 -16 7 -7 27 6 27 18 0 12 -17 12 -25 -2z"/>
 <path d="M6600 3135 c-7 -9 -10 -18 -7 -22 8 -7 37 15 37 28 0 14 -16 11 -30 -6z"/>
 <path d="M6072 3099 c-7 -12 -11 -23 -8 -27 7 -6 46 27 46 40 0 16 -25 8 -38 -13z"/>
 <path d="M3800 3095 c0 -8 7 -15 15 -15 8 0 15 7 15 15 0 8 -7 15 -15 15 -8 0 -15 -7 -15 -15z"/>
 <path d="M6535 3059 c-4 -6 -5 -13 -2 -16 7 -7 27 6 27 18 0 12 -17 12 -25 -2z"/>
 <path d="M6015 3029 c-4 -6 -5 -13 -2 -16 7 -7 27 6 27 18 0 12 -17 12 -25 -2z"/>
 <path d="M6470 2985 c-7 -9 -10 -18 -7 -22 8 -7 37 15 37 28 0 14 -16 11 -30 -6z"/>
 <path d="M5975 2979 c-4 -6 -5 -13 -2 -16 7 -7 27 6 27 18 0 12 -17 12 -25 -2z"/>
 <path d="M3860 2950 c0 -5 5 -10 10 -10 6 0 10 5 10 10 0 6 -4 10 -10 10 -5 0 -10 -4 -10 -10z"/>
 <path d="M5901 2889 c-13 -17 -20 -33 -16 -37 6 -6 54 46 55 61 0 16 -18 5 -39 -24z"/>
 <path d="M4110 2885 c0 -8 5 -15 10 -15 6 0 10 7 10 15 0 8 -4 15 -10 15 -5 0 -10 -7 -10 -15z"/>
 <path d="M6385 2889 c-4 -6 -5 -13 -2 -16 7 -7 27 6 27 18 0 12 -17 12 -25 -2z"/>
 <path d="M3470 2875 c0 -8 5 -15 10 -15 6 0 10 7 10 15 0 8 -4 15 -10 15 -5 0 -10 -7 -10 -15z"/>
 <path d="M4310 2875 c0 -8 9 -15 20 -15 11 0 20 7 20 15 0 8 -9 15 -20 15 -11 0 -20 -7 -20 -15z"/>
 <path d="M3250 2855 c-7 -9 -10 -18 -7 -22 8 -7 37 15 37 28 0 14 -16 11 -30 -6z"/>
 <path d="M6325 2839 c-4 -6 -5 -13 -2 -16 7 -7 27 6 27 18 0 12 -17 12 -25 -2z"/>
 <path d="M5850 2810 c0 -5 7 -10 15 -10 8 0 15 5 15 10 0 6 -7 10 -15 10 -8 0 -15 -4 -15 -10z"/>
 <path d="M6253 2803 c-13 -5 -19 -33 -7 -33 3 0 14 5 25 10 34 19 19 38 -18 23z"/>
 <path d="M6170 2765 c0 -8 -4 -15 -10 -15 -5 0 -10 -7 -10 -15 0 -8 9 -15 20 -15 16 0 20 7 20 30 0 17 -4 30 -10 30 -5 0 -10 -7 -10 -15z"/>
 <path d="M6016 2748 c-9 -35 -8 -38 19 -38 14 0 25 3 25 8 -1 23 -14 52 -25 52 -7 0 -15 -10 -19 -22z"/>
 <path d="M3190 2750 c0 -5 7 -10 15 -10 8 0 15 5 15 10 0 6 -7 10 -15 10 -8 0 -15 -4 -15 -10z"/>
 <path d="M5870 2715 c0 -9 9 -15 25 -15 16 0 25 6 25 15 0 9 -9 15 -25 15 -16 0 -25 -6 -25 -15z"/>
 <path d="M5830 2705 c0 -8 5 -15 10 -15 6 0 10 7 10 15 0 8 -4 15 -10 15 -5 0 -10 -7 -10 -15z"/>
 <path d="M6190 2680 c0 -5 7 -10 15 -10 8 0 15 5 15 10 0 6 -7 10 -15 10 -8 0 -15 -4 -15 -10z"/>
 <path d="M3180 2660 c0 -11 7 -20 15 -20 8 0 15 9 15 20 0 11 -7 20 -15 20 -8 0 -15 -9 -15 -20z"/>
 <path d="M5730 2650 c0 -5 5 -10 10 -10 6 0 10 5 10 10 0 6 -4 10 -10 10 -5 0 -10 -4 -10 -10z"/>
 <path d="M5685 2619 c-4 -6 -5 -13 -2 -16 7 -7 27 6 27 18 0 12 -17 12 -25 -2z"/>
 <path d="M6155 2619 c-4 -6 -5 -13 -2 -16 7 -7 27 6 27 18 0 12 -17 12 -25 -2z"/>
 <path d="M3770 2385 c0 -202 2 -235 15 -235 13 0 15 33 15 235 0 202 -2 235 -15 235 -13 0 -15 -33 -15 -235z"/>
 <path d="M5630 2560 c0 -5 5 -10 10 -10 6 0 10 5 10 10 0 6 -4 10 -10 10 -5 0 -10 -4 -10 -10z"/>
 <path d="M6090 2545 c-7 -9 -10 -18 -7 -22 8 -7 37 15 37 28 0 14 -16 11 -30 -6z"/>
 <path d="M5585 2509 c-4 -6 -5 -13 -2 -16 7 -7 27 6 27 18 0 12 -17 12 -25 -2z"/>
 <path d="M6035 2479 c-4 -6 -5 -13 -2 -16 7 -7 27 6 27 18 0 12 -17 12 -25 -2z"/>
 <path d="M5535 2449 c-4 -6 -5 -13 -2 -16 7 -7 27 6 27 18 0 12 -17 12 -25 -2z"/>
 <path d="M5975 2409 c-4 -6 -5 -13 -2 -16 7 -7 27 6 27 18 0 12 -17 12 -25 -2z"/>
 <path d="M5480 2380 c0 -5 5 -10 10 -10 6 0 10 5 10 10 0 6 -4 10 -10 10 -5 0 -10 -4 -10 -10z"/>
 <path d="M5435 2329 c-4 -6 -5 -13 -2 -16 7 -7 27 6 27 18 0 12 -17 12 -25 -2z"/>
 <path d="M5890 2315 c-13 -14 -20 -28 -17 -32 8 -7 57 35 57 49 0 15 -16 8 -40 -17z"/>
 <path d="M5390 2270 c0 -5 5 -10 10 -10 6 0 10 5 10 10 0 6 -4 10 -10 10 -5 0 -10 -4 -10 -10z"/>
 <path d="M5768 2232 c-56 -27 -82 -61 -35 -47 34 11 107 55 107 65 0 14 -7 12 -72 -18z"/>
 <path d="M3186 2225 c-9 -23 -8 -25 9 -25 17 0 19 9 6 28 -7 11 -10 10 -15 -3z"/>
 <path d="M5357 2233 c-12 -11 -8 -23 8 -23 8 0 15 7 15 15 0 16 -12 20 -23 8z"/>
 <path d="M5660 2185 c0 -8 7 -15 15 -15 8 0 15 7 15 15 0 8 -7 15 -15 15 -8 0 -15 -7 -15 -15z"/>
 <path d="M5580 2175 c0 -8 7 -15 15 -15 8 0 15 7 15 15 0 8 -7 15 -15 15 -8 0 -15 -7 -15 -15z"/>
 <path d="M5352 2169 c2 -7 10 -15 17 -17 8 -3 12 1 9 9 -2 7 -10 15 -17 17 -8 3 -12 -1 -9 -9z"/>
 <path d="M5490 2165 c0 -8 9 -15 20 -15 11 0 20 7 20 15 0 8 -9 15 -20 15 -11 0 -20 -7 -20 -15z"/>
 <path d="M5420 2155 c0 -8 7 -15 15 -15 8 0 15 7 15 15 0 8 -7 15 -15 15 -8 0 -15 -7 -15 -15z"/>
 <path d="M3190 2130 c0 -5 7 -10 15 -10 8 0 15 5 15 10 0 6 -7 10 -15 10 -8 0 -15 -4 -15 -10z"/>
 <path d="M3250 2022 c0 -12 34 -42 48 -42 18 0 14 10 -10 31 -25 20 -38 24 -38 11z"/>
 <path d="M3370 1965 c0 -8 5 -15 10 -15 6 0 10 7 10 15 0 8 -4 15 -10 15 -5 0 -10 -7 -10 -15z"/>
 <path d="M3440 1955 c0 -8 5 -15 10 -15 6 0 10 7 10 15 0 8 -4 15 -10 15 -5 0 -10 -7 -10 -15z"/>
 <path d="M3500 1945 c0 -8 5 -15 10 -15 6 0 10 7 10 15 0 8 -4 15 -10 15 -5 0 -10 -7 -10 -15z"/>
 <path d="M3570 1935 c0 -8 5 -15 10 -15 6 0 10 7 10 15 0 8 -4 15 -10 15 -5 0 -10 -7 -10 -15z"/>
 </g>
<g id="layer6" fill="#a61a08" stroke="none">
 <path d="M3446 4809 c-59 -9 -121 -23 -137 -30 -36 -15 -75 -60 -103 -119 -19 -42 -20 -62 -21 -345 0 -285 1 -302 21 -345 12 -25 36 -58 54 -75 l32 -30 156 3 c190 4 225 12 273 62 63 66 70 103 69 388 -1 139 1 255 3 259 10 17 -12 131 -31 170 -44 86 -102 98 -316 62z m271 -44 c39 -45 44 -91 43 -400 0 -272 -2 -299 -21 -350 -28 -75 -63 -102 -141 -109 -291 -25 -320 -19 -365 74 -15 31 -18 72 -18 325 0 311 3 332 57 408 27 38 48 45 213 71 156 25 198 21 232 -19z"/>
 <path d="M5610 2159 c-36 -4 -103 -13 -150 -19 -88 -12 -178 -47 -234 -93 -25 -21 -29 -31 -32 -85 -2 -35 -6 -66 -9 -71 -3 -5 -32 -12 -64 -16 -57 -6 -62 -9 -109 -63 -59 -69 -122 -156 -122 -169 0 -6 9 -18 20 -28 23 -21 66 -17 254 21 195 39 226 63 509 401 52 63 61 105 28 123 -11 5 -21 9 -23 9 -2 -1 -32 -5 -68 -10z"/>
 </g>
<g id="layer7" fill="#0b1d41" stroke="none">
 <path d="M4287 5252 c-10 -10 -17 -27 -17 -37 0 -22 72 -124 140 -198 46 -50 54 -55 83 -51 18 3 133 -11 256 -30 254 -41 271 -42 271 -20 0 12 -87 122 -137 172 -7 7 -13 18 -13 23 0 5 -15 16 -32 24 -18 9 -53 27 -76 42 -48 28 -73 35 -202 59 -217 40 -250 42 -273 16z"/>
 <path d="M2862 4735 c-148 -25 -159 -31 -201 -110 l-26 -50 -3 -300 c-3 -332 -1 -352 61 -422 l31 -35 166 7 c91 4 174 12 185 17 41 21 75 63 95 115 18 49 20 78 20 346 0 177 -4 307 -11 331 -6 21 -29 58 -51 82 -37 40 -44 44 -87 43 -25 -1 -106 -11 -179 -24z m263 -55 l30 -45 0 -320 c0 -308 -1 -322 -22 -367 -34 -75 -58 -84 -239 -93 -174 -8 -178 -7 -212 64 -15 32 -17 75 -17 346 l0 310 26 45 c15 25 37 50 50 57 30 15 261 51 314 49 35 -1 43 -6 70 -46z"/>
 <path d="M5290 4055 c0 -8 9 -15 20 -15 11 0 20 7 20 15 0 8 -9 15 -20 15 -11 0 -20 -7 -20 -15z"/>
 <path d="M5440 4045 c0 -8 9 -15 20 -15 11 0 20 7 20 15 0 8 -9 15 -20 15 -11 0 -20 -7 -20 -15z"/>
 <path d="M5250 4040 c0 -5 5 -10 10 -10 6 0 10 5 10 10 0 6 -4 10 -10 10 -5 0 -10 -4 -10 -10z"/>
 <path d="M5600 4035 c0 -8 5 -15 10 -15 6 0 10 7 10 15 0 8 -4 15 -10 15 -5 0 -10 -7 -10 -15z"/>
 <path d="M5732 3988 c3 -7 13 -15 22 -16 12 -3 17 1 14 10 -3 7 -13 15 -22 16 -12 3 -17 -1 -14 -10z"/>
 <path d="M5892 3849 c2 -7 10 -15 17 -17 8 -3 12 1 9 9 -2 7 -10 15 -17 17 -8 3 -12 -1 -9 -9z"/>
 <path d="M5402 3759 c2 -7 10 -15 17 -17 8 -3 12 1 9 9 -2 7 -10 15 -17 17 -8 3 -12 -1 -9 -9z"/>
 <path d="M5440 3710 c0 -5 5 -10 10 -10 6 0 10 5 10 10 0 6 -4 10 -10 10 -5 0 -10 -4 -10 -10z"/>
 <path d="M5480 3660 c0 -5 5 -10 10 -10 6 0 10 5 10 10 0 6 -4 10 -10 10 -5 0 -10 -4 -10 -10z"/>
 <path d="M5550 3570 c0 -5 5 -10 10 -10 6 0 10 5 10 10 0 6 -4 10 -10 10 -5 0 -10 -4 -10 -10z"/>
 <path d="M6170 3511 c0 -5 5 -13 10 -16 6 -3 10 -2 10 4 0 5 -4 13 -10 16 -5 3 -10 2 -10 -4z"/>
 <path d="M5670 3460 c0 -10 71 -50 90 -50 22 0 8 16 -32 38 -47 24 -58 27 -58 12z"/>
 <path d="M3880 2833 c-23 -20 -51 -55 -61 -77 -23 -51 -25 -116 -4 -116 10 0 15 10 15 26 0 52 23 105 62 139 43 40 39 40 288 26 156 -9 184 -17 232 -68 58 -61 63 -97 63 -443 0 -354 -5 -389 -62 -446 -30 -30 -40 -34 -87 -34 -62 0 -315 36 -363 51 -51 16 -84 48 -112 108 -25 56 -26 58 -29 339 -3 242 -5 282 -18 282 -13 0 -15 -37 -12 -287 4 -309 3 -304 60 -390 43 -64 76 -79 240 -107 254 -45 319 -34 374 61 44 75 50 130 43 458 -5 281 -7 303 -28 350 -25 56 -71 109 -115 132 -29 15 -214 31 -372 33 -67 0 -72 -2 -114 -37z"/>
 <path d="M4730 2835 c0 -8 5 -15 10 -15 6 0 10 7 10 15 0 8 -4 15 -10 15 -5 0 -10 -7 -10 -15z"/>
 <path d="M3130 2821 c0 -5 5 -13 10 -16 6 -3 10 -2 10 4 0 5 -4 13 -10 16 -5 3 -10 2 -10 -4z"/>
 <path d="M5150 2771 c0 -5 5 -13 10 -16 6 -3 10 -2 10 4 0 5 -4 13 -10 16 -5 3 -10 2 -10 -4z"/>
 <path d="M2638 2685 c-4 -16 -7 -114 -8 -217 -1 -165 1 -188 15 -188 14 0 16 23 15 190 -1 104 -5 202 -9 217 l-8 28 -5 -30z"/>
 <path d="M5380 2685 c0 -8 5 -15 10 -15 6 0 10 7 10 15 0 8 -4 15 -10 15 -5 0 -10 -7 -10 -15z"/>
 <path d="M5330 2235 c-7 -9 -10 -18 -7 -22 8 -7 37 15 37 28 0 14 -16 11 -30 -6z"/>
 <path d="M4540 1921 c0 -5 5 -13 10 -16 6 -3 10 -2 10 4 0 5 -4 13 -10 16 -5 3 -10 2 -10 -4z"/>
 <path d="M4964 1869 c-3 -6 -19 -7 -34 -4 -16 4 -31 2 -35 -5 -3 -5 -10 -8 -15 -5 -14 9 -181 -15 -217 -30 -17 -8 -71 -17 -120 -21 -48 -4 -95 -10 -104 -15 -25 -13 -167 -202 -175 -233 -4 -17 -1 -35 10 -51 21 -33 52 -32 249 1 234 40 304 79 443 246 84 101 91 122 39 125 -19 1 -37 -3 -41 -8z m-24 -103 c-28 -36 -75 -85 -103 -110 -50 -41 -155 -91 -214 -101 -15 -3 -73 -12 -128 -22 -55 -9 -120 -17 -145 -17 -82 -1 -69 35 86 234 8 9 41 17 95 22 46 4 113 12 149 18 36 5 99 15 140 21 41 6 95 14 120 18 25 4 47 6 49 4 2 -1 -20 -32 -49 -67z"/>
 </g>
<g id="layer8" fill="#5c5c5c" stroke="none">
 <path d="M5255 4040 c-28 -31 -12 -76 63 -172 297 -382 298 -382 414 -442 l70 -36 184 0 c171 0 185 1 204 20 38 38 23 71 -99 220 -308 378 -343 404 -567 420 -204 15 -248 13 -269 -10z"/>
 <path d="M2770 2915 c0 -8 5 -15 10 -15 6 0 10 7 10 15 0 8 -4 15 -10 15 -5 0 -10 -7 -10 -15z"/>
 <path d="M2940 2905 c0 -8 9 -15 20 -15 11 0 20 7 20 15 0 8 -9 15 -20 15 -11 0 -20 -7 -20 -15z"/>
 <path d="M3040 2895 c0 -8 5 -15 10 -15 6 0 10 7 10 15 0 8 -4 15 -10 15 -5 0 -10 -7 -10 -15z"/>
 <path d="M2670 2840 c-6 -12 -9 -24 -7 -27 3 -2 11 5 17 17 6 12 9 24 7 27 -3 2 -11 -5 -17 -17z"/>
 <path d="M4930 2845 c0 -12 15 -15 75 -15 68 0 77 -2 108 -30 19 -16 37 -43 40 -60 4 -19 13 -30 23 -30 19 0 15 12 -21 70 -38 60 -77 80 -157 80 -54 0 -68 -3 -68 -15z"/>
 <path d="M4750 2835 c0 -11 12 -15 45 -15 33 0 45 4 45 15 0 11 -12 15 -45 15 -33 0 -45 -4 -45 -15z"/>
 <path d="M4658 2833 c-10 -2 -18 -11 -18 -20 0 -10 6 -13 16 -9 9 3 22 6 30 6 8 0 14 7 14 15 0 15 -9 17 -42 8z"/>
 <path d="M4588 2783 c-21 -24 -51 -84 -44 -90 2 -3 11 8 19 24 8 15 24 37 36 47 22 20 27 36 13 36 -5 0 -16 -8 -24 -17z"/>
 <path d="M5540 2695 c0 -8 9 -15 20 -15 11 0 20 7 20 15 0 8 -9 15 -20 15 -11 0 -20 -7 -20 -15z"/>
 <path d="M5600 2695 c0 -9 9 -15 25 -15 28 0 34 15 9 24 -25 10 -34 7 -34 -9z"/>
 <path d="M2641 2684 c0 -11 3 -14 6 -6 3 7 2 16 -1 19 -3 4 -6 -2 -5 -13z"/>
 <path d="M5400 2685 c0 -8 9 -15 20 -15 11 0 20 7 20 15 0 8 -9 15 -20 15 -11 0 -20 -7 -20 -15z"/>
 <path d="M5170 2675 c0 -8 7 -15 15 -15 8 0 15 7 15 15 0 8 -7 15 -15 15 -8 0 -15 -7 -15 -15z"/>
 <path d="M5290 2675 c0 -8 5 -15 10 -15 6 0 10 7 10 15 0 8 -4 15 -10 15 -5 0 -10 -7 -10 -15z"/>
 <path d="M5223 2670 c-13 -5 -23 -15 -23 -21 0 -7 9 -9 23 -5 12 3 25 6 30 6 4 0 7 7 7 15 0 17 -5 18 -37 5z"/>
 <path d="M4520 2660 c0 -5 7 -10 15 -10 8 0 15 5 15 10 0 6 -7 10 -15 10 -8 0 -15 -4 -15 -10z"/>
 <path d="M4510 2605 c0 -16 6 -25 15 -25 9 0 15 9 15 25 0 16 -6 25 -15 25 -9 0 -15 -9 -15 -25z"/>
 <path d="M5597 2554 c-25 -33 -11 -46 13 -14 11 14 20 28 20 33 0 14 -15 6 -33 -19z"/>
 <path d="M5540 2480 c0 -5 5 -10 10 -10 6 0 10 5 10 10 0 6 -4 10 -10 10 -5 0 -10 -4 -10 -10z"/>
 <path d="M5435 2359 c-4 -6 -5 -13 -2 -16 7 -7 27 6 27 18 0 12 -17 12 -25 -2z"/>
 <path d="M5390 2300 c0 -5 5 -10 10 -10 6 0 10 5 10 10 0 6 -4 10 -10 10 -5 0 -10 -4 -10 -10z"/>
 <path d="M5290 2200 c0 -5 5 -10 10 -10 6 0 10 5 10 10 0 6 -4 10 -10 10 -5 0 -10 -4 -10 -10z"/>
 <path d="M2660 2171 c0 -5 5 -13 10 -16 6 -3 10 -2 10 4 0 5 -4 13 -10 16 -5 3 -10 2 -10 -4z"/>
 <path d="M5200 2145 c0 -17 2 -18 24 -9 23 9 20 24 -4 24 -11 0 -20 -7 -20 -15z"/>
 <path d="M3140 2100 c-6 -12 -9 -24 -7 -27 3 -2 11 5 17 17 6 12 9 24 7 27 -3 2 -11 -5 -17 -17z"/>
 <path d="M5160 2038 c-16 -74 -67 -133 -124 -144 -21 -3 -36 -12 -36 -20 0 -42 104 16 144 80 50 78 70 146 43 146 -8 0 -18 -25 -27 -62z"/>
 <path d="M2830 2045 c0 -8 5 -15 10 -15 6 0 10 7 10 15 0 8 -4 15 -10 15 -5 0 -10 -7 -10 -15z"/>
 <path d="M4510 2020 c0 -20 5 -30 15 -30 10 0 15 10 15 30 0 20 -5 30 -15 30 -10 0 -15 -10 -15 -30z"/>
 <path d="M2960 2025 c0 -8 5 -15 10 -15 6 0 10 7 10 15 0 8 -4 15 -10 15 -5 0 -10 -7 -10 -15z"/>
 <path d="M4520 1966 c0 -8 42 -77 46 -74 7 8 -22 78 -33 78 -7 0 -13 -2 -13 -4z"/>
 <path d="M4920 1865 c0 -9 9 -15 25 -15 16 0 25 6 25 15 0 9 -9 15 -25 15 -16 0 -25 -6 -25 -15z"/>
 <path d="M4590 1861 c0 -10 39 -41 52 -41 16 0 8 28 -9 34 -10 3 -24 9 -30 12 -7 3 -13 1 -13 -5z"/>
 <path d="M4860 1855 c0 -8 9 -15 20 -15 11 0 20 7 20 15 0 8 -9 15 -20 15 -11 0 -20 -7 -20 -15z"/>
 <path d="M4800 1845 c0 -8 7 -15 15 -15 8 0 15 7 15 15 0 8 -7 15 -15 15 -8 0 -15 -7 -15 -15z"/>
 <path d="M4730 1835 c0 -8 7 -15 15 -15 8 0 15 7 15 15 0 8 -7 15 -15 15 -8 0 -15 -7 -15 -15z"/>
 </g>
<g id="layer9" fill="#219906" stroke="none">
 <path d="M3600 3846 c0 -11 13 -18 40 -22 22 -4 40 -10 40 -15 0 -5 6 -9 13 -9 29 0 59 -79 70 -186 8 -79 14 -104 25 -104 21 0 8 154 -19 226 -21 55 -76 114 -107 114 -9 0 -27 3 -39 6 -17 5 -23 2 -23 -10z"/>
 <path d="M3390 3835 c0 -12 16 -15 85 -15 69 0 85 3 85 15 0 12 -16 15 -85 15 -69 0 -85 -3 -85 -15z"/>
 <path d="M3279 3817 c-19 -13 -45 -46 -61 -77 -32 -63 -34 -80 -13 -80 8 0 15 5 15 11 0 5 12 35 26 64 22 47 30 56 65 65 23 6 39 17 39 25 0 22 -32 18 -71 -8z"/>
 <path d="M2960 3815 c0 -11 12 -15 43 -17 23 0 48 -2 54 -2 21 -2 70 -69 83 -111 8 -28 10 -128 8 -330 -3 -279 -4 -292 -26 -332 -33 -63 -45 -66 -216 -61 l-150 5 -32 39 c-18 21 -38 57 -43 81 -7 24 -11 152 -11 305 0 214 3 268 15 292 8 15 15 34 15 40 0 7 11 23 25 36 22 21 38 25 120 28 75 4 95 7 95 19 0 12 -16 14 -94 11 -111 -4 -137 -17 -176 -94 -25 -48 -25 -53 -28 -319 -4 -312 2 -354 58 -417 42 -48 77 -56 257 -57 106 -1 113 0 143 25 39 33 69 91 77 149 3 28 11 45 19 45 11 0 14 42 14 225 0 193 -2 225 -15 225 -10 0 -15 10 -15 29 0 35 -23 103 -47 137 -34 49 -173 88 -173 49z"/>
 <path d="M3770 3260 c0 -91 3 -110 15 -110 12 0 15 19 15 110 0 91 -3 110 -15 110 -12 0 -15 -19 -15 -110z"/>
 <path d="M5778 3355 c-55 -20 -140 -78 -188 -127 -49 -50 -275 -335 -312 -393 -38 -59 -43 -90 -17 -116 21 -21 26 -21 178 -14 297 14 338 38 595 354 144 177 166 211 166 255 0 50 -22 56 -211 55 -120 0 -185 -5 -211 -14z"/>
 <path d="M3760 3103 c0 -51 -20 -102 -54 -138 l-33 -35 -97 0 c-79 0 -96 -3 -96 -15 0 -12 17 -15 93 -15 90 0 95 1 135 32 30 23 48 48 62 86 24 64 26 112 5 112 -10 0 -15 -10 -15 -27z"/>
 <path d="M3190 3092 c0 -32 37 -105 69 -136 32 -31 47 -38 95 -43 48 -5 56 -3 56 11 0 12 -9 16 -35 16 -66 0 -101 23 -129 85 -14 30 -26 60 -26 65 0 6 -7 10 -15 10 -8 0 -15 -4 -15 -8z"/>
 </g>
<g id="layer10" fill="#fcfcfc" stroke="none">
 <path d="M2711 2885 c-63 -57 -66 -75 -66 -385 0 -303 5 -336 57 -396 40 -46 57 -52 207 -75 158 -24 154 -25 195 11 65 58 71 90 71 405 0 297 -3 323 -50 396 -35 54 -71 66 -232 73 l-141 7 -41 -36z"/>
 <path d="M5207 2643 c-13 -13 -7 -53 8 -53 10 0 15 10 15 30 0 29 -9 38 -23 23z"/>
 <path d="M5200 2465 c0 -78 3 -95 15 -95 12 0 15 17 15 95 0 78 -3 95 -15 95 -12 0 -15 -17 -15 -95z"/>
 </g>
<g id="layer11" fill="#fa0202" stroke="none">
 <path d="M3452 4800 c-152 -25 -177 -39 -222 -126 l-35 -69 0 -290 c0 -306 2 -323 49 -388 34 -47 74 -58 190 -52 215 12 224 14 267 52 24 21 46 55 59 89 18 51 20 77 20 352 0 186 -4 312 -11 337 -6 22 -28 56 -49 77 -35 36 -41 38 -96 37 -33 -1 -110 -9 -172 -19z"/>
 </g>
<g id="layer12" fill="#f5fe04" stroke="none">
 <path d="M3312 2883 c-35 -7 -88 -66 -106 -119 -13 -39 -16 -95 -16 -319 0 -294 5 -331 54 -406 36 -54 67 -66 217 -89 190 -29 210 -28 259 16 67 61 72 93 68 441 -3 287 -4 300 -26 344 -12 25 -38 60 -56 78 -31 30 -42 34 -118 41 -113 12 -248 17 -276 13z"/>
 </g>
<g id="layer13" fill="#16260b" stroke="none">
 <path d="M4898 5159 c-10 -5 -18 -19 -18 -30 0 -18 42 -93 64 -114 31 -28 116 -134 116 -143 0 -9 30 -26 36 -20 8 9 -11 58 -22 58 -22 0 -164 177 -164 205 0 14 5 25 10 25 6 0 10 7 10 15 0 17 -8 18 -32 4z"/>
 <path d="M4960 5155 c0 -8 5 -15 10 -15 6 0 10 7 10 15 0 8 -4 15 -10 15 -5 0 -10 -7 -10 -15z"/>
 <path d="M5000 5145 c0 -8 9 -15 20 -15 11 0 20 7 20 15 0 8 -9 15 -20 15 -11 0 -20 -7 -20 -15z"/>
 <path d="M5060 5135 c0 -8 9 -15 20 -15 11 0 20 7 20 15 0 8 -9 15 -20 15 -11 0 -20 -7 -20 -15z"/>
 <path d="M5120 5125 c0 -8 7 -15 15 -15 8 0 15 7 15 15 0 8 -7 15 -15 15 -8 0 -15 -7 -15 -15z"/>
 <path d="M5170 5115 c0 -8 9 -15 20 -15 11 0 20 7 20 15 0 8 -9 15 -20 15 -11 0 -20 -7 -20 -15z"/>
 <path d="M5230 5105 c0 -8 7 -15 16 -15 26 0 131 -60 168 -96 35 -34 56 -43 56 -24 0 16 -88 84 -153 117 -69 36 -87 40 -87 18z"/>
 <path d="M4630 4939 c-31 -13 -90 -69 -90 -86 0 -22 14 -15 42 21 18 22 39 36 62 40 22 4 36 13 36 21 0 17 -14 18 -50 4z"/>
 <path d="M5470 4943 c0 -5 40 -53 90 -108 49 -55 90 -103 90 -107 0 -12 30 -10 30 1 0 6 -4 13 -10 16 -5 3 -48 51 -95 106 -78 89 -105 113 -105 92z"/>
 <path d="M4720 4925 c0 -8 7 -15 15 -15 8 0 15 7 15 15 0 8 -7 15 -15 15 -8 0 -15 -7 -15 -15z"/>
 <path d="M4790 4915 c0 -8 7 -15 15 -15 8 0 15 7 15 15 0 8 -7 15 -15 15 -8 0 -15 -7 -15 -15z"/>
 <path d="M4850 4905 c0 -9 9 -15 25 -15 16 0 25 6 25 15 0 9 -9 15 -25 15 -16 0 -25 -6 -25 -15z"/>
 <path d="M4930 4895 c0 -8 7 -15 15 -15 8 0 15 7 15 15 0 8 -7 15 -15 15 -8 0 -15 -7 -15 -15z"/>
 <path d="M5000 4885 c0 -8 5 -15 10 -15 6 0 10 7 10 15 0 8 -4 15 -10 15 -5 0 -10 -7 -10 -15z"/>
 <path d="M5120 4885 c0 -8 9 -15 20 -15 11 0 20 7 20 15 0 8 -9 15 -20 15 -11 0 -20 -7 -20 -15z"/>
 <path d="M5120 4824 c0 -12 52 -85 57 -80 7 7 -31 79 -44 84 -7 2 -13 0 -13 -4z"/>
 <path d="M4516 4804 c-8 -22 -8 -24 8 -24 12 0 26 20 26 36 0 12 -29 2 -34 -12z"/>
 <path d="M3840 4780 c0 -5 5 -10 10 -10 6 0 10 5 10 10 0 6 -4 10 -10 10 -5 0 -10 -4 -10 -10z"/>
 <path d="M5190 4761 c0 -20 10 -38 33 -57 39 -35 114 -70 125 -59 4 4 2 10 -4 12 -6 2 -35 18 -65 36 -45 27 -54 37 -57 65 -4 41 -32 44 -32 3z"/>
 <path d="M4491 4681 c-6 -39 -11 -147 -11 -241 0 -187 14 -310 36 -310 12 0 14 56 14 310 0 254 -2 310 -14 310 -9 0 -17 -23 -25 -69z"/>
 <path d="M5680 4705 c0 -4 7 -20 16 -36 19 -38 12 -59 -21 -59 -16 0 -25 -6 -25 -15 0 -20 39 -19 69 1 25 18 23 48 -5 92 -13 20 -34 30 -34 17z"/>
 <path d="M5184 4658 c3 -13 6 -36 6 -52 0 -25 3 -27 24 -22 19 5 38 -5 85 -40 34 -25 61 -50 61 -55 0 -5 5 -9 10 -9 36 0 -36 76 -121 127 -40 23 -47 32 -42 51 4 16 1 22 -12 22 -13 0 -16 -6 -11 -22z"/>
 <path d="M5371 4634 c2 -11 0 -25 -5 -32 -4 -7 -6 -15 -3 -18 8 -9 37 8 37 22 0 17 5 17 31 4 15 -9 21 -7 25 5 8 21 7 21 -44 30 -39 6 -43 5 -41 -11z"/>
 <path d="M5500 4616 c0 -17 18 -25 43 -18 29 8 20 32 -13 32 -19 0 -30 -5 -30 -14z"/>
 <path d="M5580 4605 c0 -9 9 -15 25 -15 16 0 25 6 25 15 0 9 -9 15 -25 15 -16 0 -25 -6 -25 -15z"/>
 <path d="M5190 4490 c0 -11 7 -20 15 -20 8 0 15 9 15 20 0 11 -7 20 -15 20 -8 0 -15 -9 -15 -20z"/>
 <path d="M5400 4450 c0 -5 7 -10 15 -10 8 0 15 5 15 10 0 6 -7 10 -15 10 -8 0 -15 -4 -15 -10z"/>
 <path d="M5442 4399 c2 -7 10 -15 17 -17 8 -3 12 1 9 9 -2 7 -10 15 -17 17 -8 3 -12 -1 -9 -9z"/>
 <path d="M5482 4348 c6 -18 28 -21 28 -4 0 9 -7 16 -16 16 -9 0 -14 -5 -12 -12z"/>
 <path d="M5520 4306 c0 -16 28 -42 36 -33 8 7 -14 47 -26 47 -6 0 -10 -6 -10 -14z"/>
 <path d="M6040 4280 c0 -5 5 -10 10 -10 6 0 10 5 10 10 0 6 -4 10 -10 10 -5 0 -10 -4 -10 -10z"/>
 <path d="M6070 4255 c0 -18 19 -40 26 -32 4 4 0 15 -9 24 -9 10 -17 13 -17 8z"/>
 <path d="M5582 4229 c2 -7 10 -15 17 -17 8 -3 12 1 9 9 -2 7 -10 15 -17 17 -8 3 -12 -1 -9 -9z"/>
 <path d="M6120 4191 c0 -5 5 -13 10 -16 6 -3 10 -2 10 4 0 5 -4 13 -10 16 -5 3 -10 2 -10 -4z"/>
 <path d="M5620 4180 c0 -5 5 -10 10 -10 6 0 10 5 10 10 0 6 -4 10 -10 10 -5 0 -10 -4 -10 -10z"/>
 <path d="M5191 4125 c-6 -22 -11 -43 -11 -47 0 -11 28 -10 32 1 6 18 58 0 58 -20 0 -11 5 -19 10 -19 6 0 10 7 10 15 0 8 7 15 15 15 28 0 16 30 -12 31 -41 1 -64 12 -78 39 -13 24 -13 24 -24 -15z"/>
 <path d="M5682 4149 c2 -7 10 -15 17 -17 8 -3 12 1 9 9 -2 7 -10 15 -17 17 -8 3 -12 -1 -9 -9z"/>
 <path d="M5640 4130 c4 -49 3 -50 -60 -50 -33 0 -60 -4 -60 -10 0 -5 -9 -10 -20 -10 -11 0 -20 -7 -20 -15 0 -10 11 -15 35 -15 19 0 35 5 35 10 0 6 16 10 35 10 24 0 35 -5 35 -15 0 -8 7 -15 15 -15 8 0 15 7 15 15 0 8 -6 15 -12 15 -7 0 -3 7 9 15 24 17 27 59 6 77 -13 10 -15 8 -13 -12z"/>
 <path d="M3170 4100 c0 -11 7 -20 15 -20 8 0 15 9 15 20 0 11 -7 20 -15 20 -8 0 -15 -9 -15 -20z"/>
 <path d="M5730 4110 c0 -5 5 -10 10 -10 6 0 10 5 10 10 0 6 -4 10 -10 10 -5 0 -10 -4 -10 -10z"/>
 <path d="M6190 4086 c0 -16 5 -26 15 -26 8 0 15 6 15 14 0 7 -7 19 -15 26 -13 11 -15 8 -15 -14z"/>
 <path d="M4514 4084 c3 -9 6 -18 6 -20 0 -2 7 -4 16 -4 11 0 14 5 10 16 -3 9 -6 18 -6 20 0 2 -7 4 -16 4 -11 0 -14 -5 -10 -16z"/>
 <path d="M5380 4080 c0 -5 -11 -10 -25 -10 -16 0 -25 -6 -25 -15 0 -10 10 -15 30 -15 17 0 30 5 30 10 0 6 11 10 25 10 16 0 25 6 25 15 0 10 -10 15 -30 15 -16 0 -30 -4 -30 -10z"/>
 <path d="M5860 4045 c0 -8 5 -15 10 -15 6 0 10 7 10 15 0 8 -4 15 -10 15 -5 0 -10 -7 -10 -15z"/>
 <path d="M5170 4029 c0 -18 2 -19 15 -9 8 7 15 16 15 21 0 5 -7 9 -15 9 -9 0 -15 -9 -15 -21z"/>
 <path d="M5960 4037 c0 -8 -15 -13 -41 -14 -57 -3 -72 -18 -66 -66 5 -38 5 -38 -14 -21 -10 9 -22 14 -26 10 -8 -8 76 -96 93 -96 6 0 14 -13 18 -30 3 -18 12 -30 21 -30 8 0 15 -5 15 -11 0 -17 62 -89 77 -89 7 0 13 -7 13 -16 0 -20 101 -144 118 -144 6 0 12 -7 12 -16 0 -8 5 -12 10 -9 6 4 28 -9 49 -27 21 -18 65 -46 97 -63 58 -30 61 -30 220 -30 174 0 194 5 194 52 0 49 -57 124 -292 384 -82 91 -181 164 -237 175 -19 4 -36 14 -38 24 -3 13 -17 17 -54 19 -28 1 -49 -3 -49 -9 0 -5 -22 -10 -50 -10 -38 0 -50 4 -50 15 0 8 -4 15 -10 15 -5 0 -10 -6 -10 -13z"/>
 <path d="M4540 4031 c0 -5 5 -13 10 -16 6 -3 10 -2 10 4 0 5 -4 13 -10 16 -5 3 -10 2 -10 -4z"/>
 <path d="M5230 4011 c0 -34 82 -162 95 -149 4 4 -9 28 -29 54 -25 32 -36 57 -36 80 0 24 -5 34 -15 34 -8 0 -15 -8 -15 -19z"/>
 <path d="M5670 4022 c0 -10 45 -32 65 -32 26 0 16 18 -16 29 -38 13 -49 14 -49 3z"/>
 <path d="M4570 3981 c0 -13 59 -61 76 -61 20 0 17 18 -5 25 -10 3 -26 14 -36 25 -19 21 -35 26 -35 11z"/>
 <path d="M5770 3970 c0 -5 5 -10 10 -10 6 0 10 5 10 10 0 6 -4 10 -10 10 -5 0 -10 -4 -10 -10z"/>
 <path d="M4380 3950 c0 -5 5 -10 10 -10 6 0 10 5 10 10 0 6 -4 10 -10 10 -5 0 -10 -4 -10 -10z"/>
 <path d="M5098 3932 c-30 -18 -36 -32 -15 -32 17 0 57 29 57 41 0 13 -11 11 -42 -9z"/>
 <path d="M4740 3915 c0 -10 10 -15 30 -15 20 0 30 5 30 15 0 10 -10 15 -30 15 -20 0 -30 -5 -30 -15z"/>
 <path d="M4080 3905 c0 -8 5 -15 10 -15 6 0 10 7 10 15 0 8 -4 15 -10 15 -5 0 -10 -7 -10 -15z"/>
 <path d="M4920 3905 c0 -11 11 -15 40 -15 29 0 40 4 40 15 0 11 -11 15 -40 15 -29 0 -40 -4 -40 -15z"/>
 <path d="M4280 3885 c0 -8 9 -15 20 -15 11 0 20 7 20 15 0 8 -9 15 -20 15 -11 0 -20 -7 -20 -15z"/>
 <path d="M4830 3875 c0 -11 11 -15 40 -15 29 0 40 4 40 15 0 11 -11 15 -40 15 -29 0 -40 -4 -40 -15z"/>
 <path d="M5020 3865 c0 -8 5 -15 10 -15 6 0 10 7 10 15 0 8 -4 15 -10 15 -5 0 -10 -7 -10 -15z"/>
 <path d="M4610 3860 c0 -5 5 -10 10 -10 6 0 10 5 10 10 0 6 -4 10 -10 10 -5 0 -10 -4 -10 -10z"/>
 <path d="M5070 3855 c0 -16 27 -32 37 -21 7 7 -16 36 -28 36 -5 0 -9 -7 -9 -15z"/>
 <path d="M3430 3845 c0 -12 16 -15 85 -15 69 0 85 3 85 15 0 12 -16 15 -85 15 -69 0 -85 -3 -85 -15z"/>
 <path d="M3630 3845 c0 -9 10 -15 26 -15 34 0 79 -46 95 -98 7 -23 18 -42 26 -42 33 0 -10 95 -63 138 -41 34 -84 43 -84 17z"/>
 <path d="M4400 3850 c0 -5 5 -10 10 -10 6 0 10 5 10 10 0 6 -4 10 -10 10 -5 0 -10 -4 -10 -10z"/>
 <path d="M3295 3836 c-33 -15 -79 -70 -95 -111 -13 -34 -13 -35 4 -35 7 0 21 21 31 46 20 54 62 84 118 84 26 0 37 4 37 15 0 19 -53 20 -95 1z"/>
 <path d="M3010 3827 c0 -9 13 -18 33 -22 45 -10 84 -50 102 -106 14 -40 16 -94 13 -341 -3 -281 -4 -295 -25 -335 -35 -64 -54 -73 -155 -73 -72 0 -88 -3 -88 -15 0 -11 12 -15 50 -15 38 0 50 -4 50 -15 0 -8 9 -15 20 -15 11 0 20 7 20 15 0 9 9 15 23 15 30 0 90 62 116 120 11 25 20 37 20 26 1 -10 17 -44 36 -76 36 -60 83 -90 140 -90 16 0 25 -6 25 -15 0 -10 11 -15 35 -15 24 0 35 5 35 15 0 8 5 15 10 15 6 0 10 6 10 14 0 10 -22 15 -90 18 -85 4 -92 6 -124 37 -32 31 -41 57 -61 166 -7 42 -6 407 1 478 6 47 4 57 -9 57 -10 0 -22 19 -32 50 -16 48 -71 110 -98 110 -7 0 -22 3 -34 6 -17 5 -23 2 -23 -9z"/>
 <path d="M4553 3805 c-24 -36 -31 -71 -13 -60 6 4 18 23 27 43 9 20 19 40 21 45 2 4 0 7 -5 7 -4 0 -18 -16 -30 -35z"/>
 <path d="M5340 3833 c1 -15 49 -67 55 -61 8 7 -35 68 -47 68 -4 0 -8 -3 -8 -7z"/>
 <path d="M2800 3815 c0 -12 16 -15 80 -15 64 0 80 3 80 15 0 12 -16 15 -80 15 -64 0 -80 -3 -80 -15z"/>
 <path d="M2712 3797 c-12 -12 -34 -45 -49 -72 l-28 -50 0 -295 c0 -270 2 -298 19 -335 20 -41 73 -105 88 -105 16 0 7 18 -24 52 -19 19 -38 55 -45 81 -17 62 -18 538 -2 605 12 47 61 112 86 112 7 0 13 7 13 15 0 23 -34 18 -58 -8z"/>
 <path d="M5140 3795 c0 -18 19 -40 26 -32 4 4 0 15 -9 24 -9 10 -17 13 -17 8z"/>
 <path d="M5412 3739 c2 -7 10 -15 17 -17 8 -3 12 1 9 9 -2 7 -10 15 -17 17 -8 3 -12 -1 -9 -9z"/>
 <path d="M4513 3703 c-4 -10 -12 -21 -19 -26 -10 -6 -13 -72 -13 -299 0 -291 3 -318 35 -318 11 0 13 61 13 330 0 182 -2 330 -5 330 -2 0 -8 -8 -11 -17z"/>
 <path d="M5452 3689 c2 -7 10 -15 17 -17 8 -3 12 1 9 9 -2 7 -10 15 -17 17 -8 3 -12 -1 -9 -9z"/>
 <path d="M5180 3650 c0 -20 5 -30 15 -30 10 0 15 10 15 30 0 20 -5 30 -15 30 -10 0 -15 -10 -15 -30z"/>
 <path d="M3770 3641 c0 -17 5 -33 10 -36 6 -3 10 -24 10 -45 0 -21 -4 -42 -10 -45 -5 -3 -10 -37 -10 -75 0 -38 5 -72 10 -75 6 -3 10 -50 10 -105 0 -55 -4 -102 -10 -105 -5 -3 -10 -22 -10 -41 0 -31 3 -35 23 -32 l22 3 3 279 c2 282 0 306 -34 306 -9 0 -14 -11 -14 -29z"/>
 <path d="M5492 3639 c2 -7 10 -15 17 -17 8 -3 12 1 9 9 -2 7 -10 15 -17 17 -8 3 -12 -1 -9 -9z"/>
 <path d="M5530 3590 c0 -5 5 -10 10 -10 6 0 10 5 10 10 0 6 -4 10 -10 10 -5 0 -10 -4 -10 -10z"/>
 <path d="M5560 3552 c0 -14 49 -56 57 -49 3 4 -4 18 -17 32 -24 25 -40 32 -40 17z"/>
 <path d="M5650 3470 c0 -5 5 -10 10 -10 6 0 10 5 10 10 0 6 -4 10 -10 10 -5 0 -10 -4 -10 -10z"/>
 <path d="M5690 3442 c0 -9 44 -32 60 -32 19 0 10 17 -15 28 -31 14 -45 15 -45 4z"/>
 <path d="M6187 3430 c-5 -19 -14 -20 -191 -20 -159 0 -186 -2 -186 -15 0 -8 7 -15 15 -15 8 0 15 -7 15 -15 0 -13 24 -15 155 -15 131 0 155 2 155 15 0 8 6 15 14 15 13 0 56 49 56 64 0 16 -28 4 -33 -14z"/>
 <path d="M6378 3368 c-39 -14 -36 -32 3 -24 17 3 35 6 40 6 5 0 9 7 9 15 0 17 -13 18 -52 3z"/>
 <path d="M6700 3365 c0 -8 5 -15 10 -15 6 0 10 7 10 15 0 8 -4 15 -10 15 -5 0 -10 -7 -10 -15z"/>
 <path d="M5717 3338 c-80 -42 -151 -115 -319 -328 -161 -204 -186 -253 -152 -291 10 -12 18 -30 16 -40 -2 -12 3 -19 12 -19 9 0 16 7 16 15 0 19 66 21 73 3 4 -10 8 -10 14 -2 11 16 123 29 123 15 0 -6 7 -11 15 -11 8 0 15 4 15 9 0 4 27 11 61 14 72 6 172 52 230 105 22 19 39 29 39 23 0 -7 5 -9 10 -6 6 3 10 15 10 26 0 10 4 19 10 19 11 0 139 147 148 170 3 8 16 23 29 33 13 10 23 23 23 28 0 6 13 21 29 35 16 13 32 35 35 49 4 14 12 25 18 25 6 0 19 7 29 16 14 13 17 26 12 68 -5 48 -17 76 -32 76 -3 0 -6 -26 -7 -57 0 -57 -1 -60 -73 -148 -40 -49 -98 -121 -129 -160 -78 -98 -169 -187 -222 -218 -68 -40 -140 -54 -310 -62 -130 -6 -158 -5 -168 7 -15 18 -2 65 29 110 57 81 246 318 293 366 54 56 142 116 189 127 30 8 38 35 10 34 -10 0 -44 -14 -76 -31z"/>
 <path d="M6297 3333 c-12 -11 -8 -23 8 -23 8 0 15 7 15 15 0 16 -12 20 -23 8z"/>
 <path d="M6730 3321 c0 -5 -3 -16 -6 -25 -4 -11 -1 -16 10 -16 9 0 16 4 16 9 0 5 3 16 6 25 4 11 1 16 -10 16 -9 0 -16 -4 -16 -9z"/>
 <path d="M6700 3240 c0 -5 5 -10 10 -10 6 0 10 5 10 10 0 6 -4 10 -10 10 -5 0 -10 -4 -10 -10z"/>
 <path d="M5177 3114 c-2 -47 -10 -91 -16 -97 -6 -6 -11 -20 -11 -30 0 -16 3 -17 15 -7 8 7 15 18 15 25 0 7 7 26 15 41 20 38 21 154 1 154 -10 0 -15 -23 -19 -86z"/>
 <path d="M6660 3190 c0 -5 5 -10 10 -10 6 0 10 5 10 10 0 6 -4 10 -10 10 -5 0 -10 -4 -10 -10z"/>
 <path d="M6612 3139 c-7 -12 -11 -23 -8 -26 6 -6 55 29 56 40 0 16 -36 6 -48 -14z"/>
 <path d="M6542 3059 c-7 -12 -11 -23 -8 -27 7 -6 46 27 46 40 0 16 -25 8 -38 -13z"/>
 <path d="M3756 3033 c-4 -16 -9 -37 -13 -48 l-5 -20 20 20 c28 27 40 75 19 75 -8 0 -18 -12 -21 -27z"/>
 <path d="M4520 3026 c0 -34 44 -106 56 -93 4 4 2 12 -4 19 -5 7 -14 28 -19 47 -9 35 -33 55 -33 27z"/>
 <path d="M6475 2979 c-4 -6 -5 -13 -2 -16 7 -7 27 6 27 18 0 12 -17 12 -25 -2z"/>
 <path d="M2770 2945 c0 -8 5 -15 10 -15 6 0 10 -7 10 -15 0 -10 10 -15 26 -15 22 0 25 3 20 23 -3 12 -6 25 -6 30 0 4 -13 7 -30 7 -20 0 -30 -5 -30 -15z"/>
 <path d="M3691 2940 c-19 -16 -38 -20 -102 -20 -64 0 -79 -3 -79 -15 0 -10 11 -15 35 -15 24 0 35 -5 35 -15 0 -9 9 -15 25 -15 16 0 25 6 25 15 0 8 8 15 18 15 21 0 92 47 92 60 0 16 -23 11 -49 -10z"/>
 <path d="M5115 2939 c-4 -6 -5 -13 -2 -16 7 -7 27 6 27 18 0 12 -17 12 -25 -2z"/>
 <path d="M6430 2924 c0 -17 22 -14 28 4 2 7 -3 12 -12 12 -9 0 -16 -7 -16 -16z"/>
 <path d="M4590 2911 c0 -5 13 -19 29 -30 34 -25 81 -28 81 -6 0 10 -10 15 -28 15 -16 0 -37 7 -48 15 -22 17 -34 19 -34 6z"/>
 <path d="M3890 2900 c0 -5 9 -10 20 -10 11 0 20 5 20 10 0 6 -9 10 -20 10 -11 0 -20 -4 -20 -10z"/>
 <path d="M5060 2895 c0 -8 5 -15 10 -15 6 0 10 7 10 15 0 8 -4 15 -10 15 -5 0 -10 -7 -10 -15z"/>
 <path d="M2695 2889 c-4 -6 -5 -13 -2 -16 7 -7 27 6 27 18 0 12 -17 12 -25 -2z"/>
 <path d="M3293 2893 c-22 -8 -14 -23 12 -23 16 0 25 6 25 15 0 15 -14 18 -37 8z"/>
 <path d="M3950 2885 c0 -8 5 -15 10 -15 6 0 10 7 10 15 0 8 -4 15 -10 15 -5 0 -10 -7 -10 -15z"/>
 <path d="M4960 2885 c0 -10 11 -15 35 -15 24 0 35 5 35 15 0 10 -11 15 -35 15 -24 0 -35 -5 -35 -15z"/>
 <path d="M6395 2889 c-4 -6 -5 -13 -2 -16 7 -7 27 6 27 18 0 12 -17 12 -25 -2z"/>
 <path d="M3080 2880 c0 -5 5 -10 10 -10 6 0 10 5 10 10 0 6 -4 10 -10 10 -5 0 -10 -4 -10 -10z"/>
 <path d="M4750 2875 c0 -11 11 -15 40 -15 29 0 40 4 40 15 0 11 -11 15 -40 15 -29 0 -40 -4 -40 -15z"/>
 <path d="M3660 2861 c0 -5 16 -19 35 -32 18 -13 37 -34 40 -46 3 -13 12 -23 20 -23 21 0 19 11 -10 50 -32 44 -85 75 -85 51z"/>
 <path d="M3110 2850 c0 -5 5 -10 10 -10 6 0 10 5 10 10 0 6 -4 10 -10 10 -5 0 -10 -4 -10 -10z"/>
 <path d="M4860 2845 c0 -10 10 -15 30 -15 20 0 30 5 30 15 0 10 -10 15 -30 15 -20 0 -30 -5 -30 -15z"/>
 <path d="M4690 2835 c0 -8 9 -15 20 -15 11 0 20 7 20 15 0 8 -9 15 -20 15 -11 0 -20 -7 -20 -15z"/>
 <path d="M5070 2840 c0 -5 7 -10 15 -10 8 0 15 5 15 10 0 6 -7 10 -15 10 -8 0 -15 -4 -15 -10z"/>
 <path d="M6330 2830 c0 -5 5 -10 10 -10 6 0 10 5 10 10 0 6 -4 10 -10 10 -5 0 -10 -4 -10 -10z"/>
 <path d="M4630 2820 c0 -5 7 -10 15 -10 8 0 15 5 15 10 0 6 -7 10 -15 10 -8 0 -15 -4 -15 -10z"/>
 <path d="M5120 2810 c0 -5 5 -10 10 -10 6 0 10 5 10 10 0 6 -4 10 -10 10 -5 0 -10 -4 -10 -10z"/>
 <path d="M6270 2802 c-14 -9 -28 -20 -31 -25 -3 -4 -13 -5 -22 -1 -12 4 -17 1 -17 -10 0 -9 6 -16 13 -16 21 0 97 44 97 57 0 17 -10 16 -40 -5z"/>
 <path d="M3200 2779 c0 -18 2 -19 15 -9 8 7 15 16 15 21 0 5 -7 9 -15 9 -9 0 -15 -9 -15 -21z"/>
 <path d="M5840 2783 c0 -5 14 -23 30 -40 31 -35 60 -43 60 -18 0 8 -5 15 -11 15 -7 0 -22 11 -35 25 -22 24 -44 33 -44 18z"/>
 <path d="M6120 2757 c0 -8 10 -17 23 -21 33 -9 37 -8 37 9 0 8 -6 15 -14 15 -8 0 -21 3 -30 6 -10 4 -16 1 -16 -9z"/>
 <path d="M5980 2747 c0 -8 13 -17 31 -21 50 -10 69 -7 69 9 0 10 -10 15 -27 15 -16 0 -38 3 -50 6 -16 5 -23 2 -23 -9z"/>
 <path d="M2630 2730 c0 -11 7 -20 15 -20 8 0 15 9 15 20 0 11 -7 20 -15 20 -8 0 -15 -9 -15 -20z"/>
 <path d="M4557 2743 c-4 -3 -7 -11 -7 -17 0 -6 5 -5 12 2 6 6 9 14 7 17 -3 3 -9 2 -12 -2z"/>
 <path d="M3180 2730 c0 -5 7 -10 15 -10 8 0 15 5 15 10 0 6 -7 10 -15 10 -8 0 -15 -4 -15 -10z"/>
 <path d="M5850 2715 c0 -8 5 -15 10 -15 6 0 10 7 10 15 0 8 -4 15 -10 15 -5 0 -10 -7 -10 -15z"/>
 <path d="M6200 2700 c0 -11 7 -20 15 -20 8 0 15 9 15 20 0 11 -7 20 -15 20 -8 0 -15 -9 -15 -20z"/>
 <path d="M3160 2450 c0 -229 1 -260 15 -260 14 0 15 31 15 260 -1 214 -4 260 -15 260 -11 0 -14 -46 -15 -260z"/>
 <path d="M5768 2689 c-33 -17 -51 -39 -32 -39 14 0 94 44 94 52 0 13 -22 9 -62 -13z"/>
 <path d="M4522 2668 c-16 -16 -15 -28 3 -28 8 0 15 9 15 20 0 23 -2 24 -18 8z"/>
 <path d="M5180 2660 c0 -5 7 -10 15 -10 8 0 15 5 15 10 0 6 -7 10 -15 10 -8 0 -15 -4 -15 -10z"/>
 <path d="M5685 2629 c-4 -6 -5 -13 -2 -16 7 -7 27 6 27 18 0 12 -17 12 -25 -2z"/>
 <path d="M5180 2360 c0 -233 2 -270 15 -270 13 0 15 37 15 270 0 233 -2 270 -15 270 -13 0 -15 -37 -15 -270z"/>
 <path d="M6160 2615 c-7 -9 -10 -18 -7 -22 8 -7 37 15 37 28 0 14 -16 11 -30 -6z"/>
 <path d="M5615 2564 c-9 -19 -23 -38 -31 -41 -15 -6 -20 -33 -5 -33 16 0 71 70 71 90 0 31 -16 24 -35 -16z"/>
 <path d="M4500 2331 c0 -137 3 -257 6 -266 17 -44 24 28 24 263 0 217 -2 252 -15 252 -13 0 -15 -34 -15 -249z"/>
 <path d="M6095 2539 c-4 -6 -5 -13 -2 -16 7 -7 27 6 27 18 0 12 -17 12 -25 -2z"/>
 <path d="M6035 2469 c-4 -6 -5 -13 -2 -16 7 -7 27 6 27 18 0 12 -17 12 -25 -2z"/>
 <path d="M5520 2455 c-7 -9 -11 -18 -8 -20 9 -10 38 7 38 21 0 18 -14 18 -30 -1z"/>
 <path d="M5973 2395 c-3 -9 -3 -18 0 -21 9 -9 27 6 27 22 0 19 -19 18 -27 -1z"/>
 <path d="M5465 2389 c-4 -6 -4 -13 -1 -16 8 -8 36 5 36 17 0 13 -27 13 -35 -1z"/>
 <path d="M5425 2339 c-4 -6 -4 -13 -1 -16 8 -8 36 5 36 17 0 13 -27 13 -35 -1z"/>
 <path d="M5910 2320 c0 -5 5 -10 10 -10 6 0 10 5 10 10 0 6 -4 10 -10 10 -5 0 -10 -4 -10 -10z"/>
 <path d="M5880 2290 c0 -5 5 -10 10 -10 6 0 10 5 10 10 0 6 -4 10 -10 10 -5 0 -10 -4 -10 -10z"/>
 <path d="M5370 2275 c-7 -9 -10 -18 -7 -21 7 -8 47 14 47 26 0 15 -26 12 -40 -5z"/>
 <path d="M2630 2265 c0 -8 7 -15 15 -15 8 0 15 7 15 15 0 8 -7 15 -15 15 -8 0 -15 -7 -15 -15z"/>
 <path d="M5763 2218 c-23 -11 -31 -28 -13 -28 16 0 60 23 60 32 0 11 -20 9 -47 -4z"/>
 <path d="M5640 2175 c0 -8 5 -15 10 -15 6 0 10 7 10 15 0 8 -4 15 -10 15 -5 0 -10 -7 -10 -15z"/>
 <path d="M3180 2160 c0 -11 7 -20 15 -20 8 0 15 9 15 20 0 11 -7 20 -15 20 -8 0 -15 -9 -15 -20z"/>
 <path d="M5480 2155 c0 -8 7 -15 15 -15 8 0 15 7 15 15 0 8 -7 15 -15 15 -8 0 -15 -7 -15 -15z"/>
 <path d="M5360 2151 c0 -5 7 -12 16 -15 22 -9 24 -8 24 9 0 8 -9 15 -20 15 -11 0 -20 -4 -20 -9z"/>
 <path d="M2670 2131 c0 -12 5 -21 10 -21 6 0 10 6 10 14 0 8 -4 18 -10 21 -5 3 -10 -3 -10 -14z"/>
 <path d="M3200 2105 c0 -11 9 -31 20 -45 l21 -25 -7 30 c-4 17 -13 37 -20 45 -12 12 -14 12 -14 -5z"/>
 <path d="M2720 2070 c0 -5 5 -10 10 -10 6 0 10 5 10 10 0 6 -4 10 -10 10 -5 0 -10 -4 -10 -10z"/>
 <path d="M3115 2059 c-4 -6 -5 -13 -2 -16 7 -7 27 6 27 18 0 12 -17 12 -25 -2z"/>
 <path d="M2800 2045 c0 -8 5 -15 10 -15 6 0 10 7 10 15 0 8 -4 15 -10 15 -5 0 -10 -7 -10 -15z"/>
 <path d="M5170 2050 c0 -5 7 -10 15 -10 8 0 15 5 15 10 0 6 -7 10 -15 10 -8 0 -15 -4 -15 -10z"/>
 <path d="M2870 2035 c0 -8 5 -15 10 -15 6 0 10 7 10 15 0 8 -4 15 -10 15 -5 0 -10 -7 -10 -15z"/>
 <path d="M3767 2043 c-4 -3 -7 -11 -7 -17 0 -6 5 -5 12 2 6 6 9 14 7 17 -3 3 -9 2 -12 -2z"/>
 <path d="M3010 2015 c0 -7 14 -12 30 -13 19 0 30 4 30 13 0 9 -11 13 -30 13 -16 -1 -30 -6 -30 -13z"/>
 <path d="M4500 2020 c0 -5 7 -10 15 -10 8 0 15 5 15 10 0 6 -7 10 -15 10 -8 0 -15 -4 -15 -10z"/>
 <path d="M5151 1985 c-23 -40 -25 -45 -13 -45 10 0 45 70 39 77 -3 2 -14 -12 -26 -32z"/>
 <path d="M3300 1977 c0 -8 10 -17 23 -21 35 -9 47 -7 47 9 0 8 -9 15 -19 15 -11 0 -26 3 -35 6 -10 4 -16 1 -16 -9z"/>
 <path d="M3715 1970 c-10 -11 -16 -23 -12 -26 9 -9 47 16 47 31 0 21 -14 19 -35 -5z"/>
 <path d="M4510 1976 c0 -7 7 -19 15 -26 13 -11 15 -8 15 14 0 16 -5 26 -15 26 -8 0 -15 -6 -15 -14z"/>
 <path d="M3400 1955 c0 -8 5 -15 10 -15 6 0 10 7 10 15 0 8 -4 15 -10 15 -5 0 -10 -7 -10 -15z"/>
 <path d="M3470 1945 c0 -8 5 -15 10 -15 6 0 10 7 10 15 0 8 -4 15 -10 15 -5 0 -10 -7 -10 -15z"/>
 <path d="M3540 1935 c0 -8 7 -15 15 -15 8 0 15 7 15 15 0 8 -7 15 -15 15 -8 0 -15 -7 -15 -15z"/>
 <path d="M3630 1925 c0 -17 9 -19 28 -6 11 7 10 10 -3 15 -23 9 -25 8 -25 -9z"/>
 <path d="M5080 1900 c0 -5 5 -10 10 -10 6 0 10 5 10 10 0 6 -4 10 -10 10 -5 0 -10 -4 -10 -10z"/>
 <path d="M4582 1859 c2 -7 10 -15 17 -17 8 -3 12 1 9 9 -2 7 -10 15 -17 17 -8 3 -12 -1 -9 -9z"/>
 <path d="M4640 1825 c0 -17 9 -19 28 -6 11 7 10 10 -3 15 -23 9 -25 8 -25 -9z"/>
 <path d="M4980 1790 c0 -5 5 -10 10 -10 6 0 10 5 10 10 0 6 -4 10 -10 10 -5 0 -10 -4 -10 -10z"/>
 </g>
<g id="layer14" fill="#a6ac08" stroke="none">
 <path d="M4040 4885 c0 -8 5 -15 10 -15 6 0 10 7 10 15 0 8 -4 15 -10 15 -5 0 -10 -7 -10 -15z"/>
 <path d="M4440 4841 c0 -5 5 -13 10 -16 6 -3 10 -2 10 4 0 5 -4 13 -10 16 -5 3 -10 2 -10 -4z"/>
 <path d="M3852 4785 c-17 -38 -14 -43 8 -15 21 27 25 40 12 40 -5 0 -14 -11 -20 -25z"/>
 <path d="M3810 4700 c0 -5 7 -10 15 -10 8 0 15 5 15 10 0 6 -7 10 -15 10 -8 0 -15 -4 -15 -10z"/>
 <path d="M3800 4375 c0 -202 2 -235 15 -235 13 0 15 33 15 235 0 202 -2 235 -15 235 -13 0 -15 -33 -15 -235z"/>
 <path d="M4376 3965 c-23 -17 -13 -34 11 -19 19 12 29 34 16 34 -4 0 -17 -7 -27 -15z"/>
 <path d="M3880 3940 c0 -5 5 -10 10 -10 6 0 10 5 10 10 0 6 -4 10 -10 10 -5 0 -10 -4 -10 -10z"/>
 <path d="M4120 3915 c0 -8 5 -15 10 -15 6 0 10 7 10 15 0 8 -4 15 -10 15 -5 0 -10 -7 -10 -15z"/>
 <path d="M4280 3875 c0 -16 27 -20 48 -6 11 7 10 10 -3 15 -28 10 -45 7 -45 -9z"/>
 <path d="M4050 3865 c0 -9 9 -15 25 -15 16 0 25 6 25 15 0 9 -9 15 -25 15 -16 0 -25 -6 -25 -15z"/>
 <path d="M3800 3405 c0 -211 2 -245 15 -245 13 0 15 34 15 245 0 211 -2 245 -15 245 -13 0 -15 -34 -15 -245z"/>
 <path d="M6400 3363 c-83 -14 -174 -89 -317 -262 -53 -64 -102 -121 -108 -126 -28 -24 -113 -145 -119 -170 -8 -31 6 -52 44 -68 23 -9 21 -11 -30 -19 -96 -15 -175 -81 -346 -288 -70 -85 -133 -158 -139 -162 -6 -4 -18 -25 -25 -48 -12 -37 -12 -43 6 -60 19 -19 21 -19 179 1 140 17 169 24 230 54 70 34 142 97 220 190 22 26 51 60 65 76 134 155 147 172 153 200 8 32 -9 56 -43 61 -24 4 -24 5 5 12 44 11 126 48 158 71 36 26 112 100 159 156 279 329 285 339 236 373 -18 13 -50 16 -163 15 -77 -1 -151 -4 -165 -6z m-345 -623 c4 -6 -5 -10 -20 -10 -15 0 -24 4 -20 10 3 6 12 10 20 10 8 0 17 -4 20 -10z m58 3 c-7 -2 -19 -2 -25 0 -7 3 -2 5 12 5 14 0 19 -2 13 -5z m-136 -9 c-3 -3 -12 -4 -19 -1 -8 3 -5 6 6 6 11 1 17 -2 13 -5z"/>
 <path d="M3800 3125 c0 -8 7 -15 15 -15 8 0 15 7 15 15 0 8 -7 15 -15 15 -8 0 -15 -7 -15 -15z"/>
 <path d="M3830 3014 c0 -5 7 -19 15 -30 8 -10 15 -14 15 -8 0 5 -7 19 -15 30 -8 10 -15 14 -15 8z"/>
 <path d="M4130 2885 c0 -8 9 -15 20 -15 11 0 20 7 20 15 0 8 -9 15 -20 15 -11 0 -20 -7 -20 -15z"/>
 <path d="M3300 2875 c0 -8 5 -15 10 -15 6 0 10 7 10 15 0 8 -4 15 -10 15 -5 0 -10 -7 -10 -15z"/>
 <path d="M3410 2875 c0 -10 10 -15 30 -15 20 0 30 5 30 15 0 10 -10 15 -30 15 -20 0 -30 -5 -30 -15z"/>
 <path d="M3600 2865 c0 -8 7 -15 15 -15 8 0 15 7 15 15 0 8 -7 15 -15 15 -8 0 -15 -7 -15 -15z"/>
 <path d="M3660 2851 c0 -10 30 -24 37 -17 3 3 2 9 -2 15 -8 13 -35 15 -35 2z"/>
 <path d="M3220 2816 c0 -8 -3 -23 -6 -33 -4 -13 0 -11 15 7 25 30 26 40 6 40 -8 0 -15 -6 -15 -14z"/>
 <path d="M3720 2803 c0 -5 7 -17 15 -27 8 -11 15 -28 15 -38 0 -10 7 -18 16 -18 9 0 14 3 12 8 -25 52 -43 82 -50 82 -4 0 -8 -3 -8 -7z"/>
 <path d="M3180 2446 c0 -107 3 -202 6 -211 16 -42 24 22 24 208 0 168 -2 197 -15 197 -13 0 -15 -28 -15 -194z"/>
 <path d="M3520 1945 c0 -8 5 -15 10 -15 6 0 10 7 10 15 0 8 -4 15 -10 15 -5 0 -10 -7 -10 -15z"/>
 <path d="M3590 1935 c0 -8 5 -15 10 -15 6 0 10 7 10 15 0 8 -4 15 -10 15 -5 0 -10 -7 -10 -15z"/>
 <path d="M3670 1934 c0 -9 5 -14 12 -12 18 6 21 28 4 28 -9 0 -16 -7 -16 -16z"/>
 </g>
<g id="layer15" fill="#818187" stroke="none">
 <path d="M2920 2905 c0 -8 5 -15 10 -15 6 0 10 7 10 15 0 8 -4 15 -10 15 -5 0 -10 -7 -10 -15z"/>
 <path d="M4760 2840 c-47 -4 -94 -11 -105 -15 -46 -18 -113 -101 -121 -150 -1 -5 -3 -14 -4 -20 -11 -39 -13 -92 -14 -345 -1 -271 0 -289 22 -358 14 -44 30 -75 40 -79 9 -4 22 -12 27 -19 24 -28 74 -34 175 -19 19 2 42 5 50 6 8 0 22 3 30 6 8 3 38 7 65 9 83 6 140 24 176 53 35 29 78 103 84 143 6 48 18 89 26 94 5 3 9 115 9 248 0 204 -2 246 -15 256 -8 7 -15 21 -15 30 0 35 -38 106 -73 137 l-35 31 -119 0 c-65 -1 -156 -4 -203 -8z"/>
 <path d="M5580 2695 c0 -8 5 -15 10 -15 6 0 10 7 10 15 0 8 -4 15 -10 15 -5 0 -10 -7 -10 -15z"/>
 <path d="M5440 2685 c0 -8 7 -15 15 -15 8 0 15 7 15 15 0 8 -7 15 -15 15 -8 0 -15 -7 -15 -15z"/>
 <path d="M5310 2675 c0 -8 5 -15 10 -15 6 0 10 7 10 15 0 8 -4 15 -10 15 -5 0 -10 -7 -10 -15z"/>
 <path d="M5651 2654 c0 -11 3 -14 6 -6 3 7 2 16 -1 19 -3 4 -6 -2 -5 -13z"/>
 <path d="M5520 2460 c0 -5 5 -10 10 -10 6 0 10 5 10 10 0 6 -4 10 -10 10 -5 0 -10 -4 -10 -10z"/>
 <path d="M2730 2070 c0 -5 7 -10 15 -10 8 0 15 5 15 10 0 6 -7 10 -15 10 -8 0 -15 -4 -15 -10z"/>
 </g>
<g id="layer16" fill="#4d1d02" stroke="none">
 <path d="M4913 5155 c-39 -27 -28 -56 60 -161 84 -100 91 -105 178 -119 l36 -5 7 -70 c6 -61 11 -72 38 -95 44 -37 122 -75 155 -75 l28 0 -32 -26 c-37 -29 -41 -48 -16 -84 12 -18 3 -13 -32 16 -28 23 -69 53 -92 68 -24 14 -43 32 -43 39 0 8 -4 7 -10 -3 -6 -9 -10 -124 -10 -275 l0 -260 57 -14 c125 -29 389 -41 411 -19 16 16 15 57 -3 91 -12 23 -2 18 58 -30 40 -32 90 -66 111 -76 50 -23 186 -39 302 -35 l89 3 3 36 c3 31 -4 46 -44 95 -26 33 -52 64 -58 69 -6 6 -39 44 -72 85 -123 151 -244 252 -320 266 l-33 6 27 23 c26 23 26 24 10 57 -9 19 -65 90 -125 159 -221 252 -253 274 -468 312 -77 14 -151 28 -165 32 -16 3 -34 0 -47 -10z m544 -542 c-4 -3 -10 -3 -14 0 -3 4 0 7 7 7 7 0 10 -3 7 -7z m96 -10 c-7 -2 -19 -2 -25 0 -7 3 -2 5 12 5 14 0 19 -2 13 -5z m74 -9 c-3 -3 -12 -4 -19 -1 -8 3 -5 6 6 6 11 1 17 -2 13 -5z m-122 -244 c3 -5 4 -10 1 -10 -3 0 -8 5 -11 10 -3 6 -4 10 -1 10 3 0 8 -4 11 -10z m46 -57 c13 -16 12 -17 -3 -4 -10 7 -18 15 -18 17 0 8 8 3 21 -13z"/>
 <path d="M4250 4925 c0 -8 9 -15 20 -15 11 0 20 7 20 15 0 8 -9 15 -20 15 -11 0 -20 -7 -20 -15z"/>
 <path d="M4350 4925 c0 -8 6 -15 14 -15 24 0 67 -42 83 -81 8 -22 21 -39 29 -39 8 0 14 4 14 8 0 20 -66 106 -94 123 -37 23 -46 24 -46 4z"/>
 <path d="M4700 4925 c0 -8 5 -15 10 -15 6 0 10 7 10 15 0 8 -4 15 -10 15 -5 0 -10 -7 -10 -15z"/>
 <path d="M4180 4915 c0 -8 9 -15 20 -15 11 0 20 7 20 15 0 8 -9 15 -20 15 -11 0 -20 -7 -20 -15z"/>
 <path d="M4770 4915 c0 -8 5 -15 10 -15 6 0 10 7 10 15 0 8 -4 15 -10 15 -5 0 -10 -7 -10 -15z"/>
 <path d="M4110 4905 c0 -9 9 -15 25 -15 16 0 25 6 25 15 0 9 -9 15 -25 15 -16 0 -25 -6 -25 -15z"/>
 <path d="M4600 4910 c0 -5 5 -10 10 -10 6 0 10 5 10 10 0 6 -4 10 -10 10 -5 0 -10 -4 -10 -10z"/>
 <path d="M4830 4905 c0 -8 5 -15 10 -15 6 0 10 7 10 15 0 8 -4 15 -10 15 -5 0 -10 -7 -10 -15z"/>
 <path d="M4050 4895 c0 -8 7 -15 15 -15 8 0 15 7 15 15 0 8 -7 15 -15 15 -8 0 -15 -7 -15 -15z"/>
 <path d="M4900 4895 c0 -8 7 -15 15 -15 8 0 15 7 15 15 0 8 -7 15 -15 15 -8 0 -15 -7 -15 -15z"/>
 <path d="M3968 4893 c-10 -2 -18 -11 -18 -20 0 -10 6 -13 16 -9 9 3 24 6 35 6 10 0 19 7 19 15 0 15 -17 17 -52 8z"/>
 <path d="M4970 4885 c0 -8 7 -15 15 -15 8 0 15 7 15 15 0 8 -7 15 -15 15 -8 0 -15 -7 -15 -15z"/>
 <path d="M5040 4875 c0 -8 9 -15 20 -15 24 0 27 15 4 24 -22 9 -24 8 -24 -9z"/>
 <path d="M3900 4850 c0 -5 5 -10 10 -10 6 0 10 5 10 10 0 6 -4 10 -10 10 -5 0 -10 -4 -10 -10z"/>
 <path d="M5100 4840 c0 -5 5 -10 10 -10 6 0 10 5 10 10 0 6 -4 10 -10 10 -5 0 -10 -4 -10 -10z"/>
 <path d="M3555 4835 c-5 -1 -50 -8 -100 -15 -119 -16 -154 -27 -188 -59 -80 -73 -96 -149 -97 -448 0 -158 3 -193 14 -193 11 0 14 46 18 248 l4 247 29 59 c19 37 42 67 60 78 34 19 256 58 335 58 65 0 93 -19 120 -81 20 -49 21 -64 21 -357 -1 -337 -6 -374 -61 -432 -15 -16 -42 -33 -59 -36 -18 -4 -31 -13 -31 -21 0 -25 60 -7 97 29 31 30 48 58 74 123 l11 30 12 -30 c17 -47 56 -104 78 -116 34 -18 32 -1 -4 33 -24 23 -39 49 -48 86 -8 29 -19 52 -27 52 -15 0 -18 26 -3 35 6 4 10 97 10 245 0 148 -4 241 -10 245 -16 10 -12 45 5 45 8 0 15 7 15 15 0 8 -7 15 -15 15 -8 0 -26 22 -39 49 -14 26 -39 60 -56 75 -27 22 -41 26 -93 25 -34 0 -66 -2 -72 -4z"/>
 <path d="M3865 4819 c-4 -6 -5 -13 -2 -16 7 -7 27 6 27 18 0 12 -17 12 -25 -2z"/>
 <path d="M4510 4770 c0 -5 7 -10 15 -10 8 0 15 5 15 10 0 6 -7 10 -15 10 -8 0 -15 -4 -15 -10z"/>
 <path d="M3833 4759 c-7 -7 -13 -22 -13 -33 0 -19 1 -19 16 -4 9 8 14 23 12 32 -2 14 -5 15 -15 5z"/>
 <path d="M4470 4730 c0 -20 5 -30 15 -30 10 0 15 10 15 30 0 20 -5 30 -15 30 -10 0 -15 -10 -15 -30z"/>
 <path d="M5170 4700 c0 -5 7 -10 15 -10 8 0 15 5 15 10 0 6 -7 10 -15 10 -8 0 -15 -4 -15 -10z"/>
 <path d="M4470 4150 c0 -20 5 -30 15 -30 10 0 15 10 15 30 0 20 -5 30 -15 30 -10 0 -15 -10 -15 -30z"/>
 <path d="M4510 4110 c0 -5 7 -10 15 -10 8 0 15 5 15 10 0 6 -7 10 -15 10 -8 0 -15 -4 -15 -10z"/>
 <path d="M4446 4052 c-10 -26 -26 -55 -34 -65 -16 -18 -11 -34 7 -22 13 8 57 82 66 113 13 44 -20 23 -39 -26z"/>
 <path d="M3180 4044 c0 -54 44 -137 88 -168 l39 -26 141 6 c112 6 142 10 142 21 0 12 -26 14 -149 11 -137 -3 -150 -1 -171 17 -30 26 -60 98 -60 141 0 24 -5 34 -15 34 -11 0 -15 -11 -15 -36z"/>
 <path d="M4540 4048 c0 -14 23 -58 32 -58 4 0 8 3 8 8 -1 9 -39 59 -40 50z"/>
 <path d="M5152 3988 c-14 -14 -16 -28 -3 -28 9 0 24 30 18 36 -2 2 -9 -2 -15 -8z"/>
 <path d="M4610 3950 c0 -5 5 -10 10 -10 6 0 10 5 10 10 0 6 -4 10 -10 10 -5 0 -10 -4 -10 -10z"/>
 <path d="M4338 3943 c-19 -5 -25 -33 -7 -33 17 0 49 20 49 30 0 10 -12 11 -42 3z"/>
 <path d="M4660 3925 c0 -8 5 -15 10 -15 6 0 10 7 10 15 0 8 -4 15 -10 15 -5 0 -10 -7 -10 -15z"/>
 <path d="M4200 3915 c0 -11 12 -15 45 -15 33 0 45 4 45 15 0 11 -12 15 -45 15 -33 0 -45 -4 -45 -15z"/>
 <path d="M4800 3915 c0 -9 9 -15 25 -15 16 0 25 6 25 15 0 9 -9 15 -25 15 -16 0 -25 -6 -25 -15z"/>
 <path d="M3940 3905 c0 -8 7 -15 15 -15 8 0 15 7 15 15 0 8 -7 15 -15 15 -8 0 -15 -7 -15 -15z"/>
 <path d="M4020 3905 c0 -10 10 -15 30 -15 20 0 30 -5 30 -15 0 -11 12 -15 50 -15 38 0 50 4 50 15 0 11 -12 15 -50 15 -38 0 -50 4 -50 15 0 10 -10 15 -30 15 -20 0 -30 -5 -30 -15z"/>
 <path d="M5000 3905 c0 -10 11 -14 35 -13 19 1 35 6 35 13 0 7 -16 12 -35 13 -24 1 -35 -3 -35 -13z"/>
 <path d="M4320 3885 c0 -8 9 -15 19 -15 11 0 23 -4 26 -10 8 -13 35 -13 35 0 0 10 -52 40 -70 40 -5 0 -10 -7 -10 -15z"/>
 <path d="M4637 3883 c-13 -12 -7 -23 13 -23 11 0 20 7 20 15 0 15 -21 21 -33 8z"/>
 <path d="M4770 3875 c0 -10 10 -15 30 -15 20 0 30 5 30 15 0 10 -10 15 -30 15 -20 0 -30 -5 -30 -15z"/>
 <path d="M3925 3868 c-51 -28 -105 -98 -105 -136 0 -12 3 -12 15 -2 8 7 15 19 15 26 0 8 18 32 40 54 29 29 48 40 70 40 20 0 30 5 30 15 0 18 -36 20 -65 3z"/>
 <path d="M4990 3865 c0 -8 7 -15 15 -15 8 0 15 7 15 15 0 8 -7 15 -15 15 -8 0 -15 -7 -15 -15z"/>
 <path d="M4570 3820 c0 -5 5 -10 10 -10 6 0 10 5 10 10 0 6 -4 10 -10 10 -5 0 -10 -4 -10 -10z"/>
 <path d="M5112 3819 c2 -7 10 -15 17 -17 8 -3 12 1 9 9 -2 7 -10 15 -17 17 -8 3 -12 -1 -9 -9z"/>
 <path d="M4444 3793 c2 -10 7 -28 11 -40 3 -13 13 -23 21 -23 19 0 18 6 -7 46 -23 37 -33 44 -25 17z"/>
 <path d="M5150 3751 c0 -5 7 -14 15 -21 13 -10 15 -9 15 9 0 12 -6 21 -15 21 -8 0 -15 -4 -15 -9z"/>
 <path d="M4470 3695 c0 -8 7 -15 15 -15 8 0 15 7 15 15 0 8 -7 15 -15 15 -8 0 -15 -7 -15 -15z"/>
 <path d="M3800 3690 c0 -5 7 -10 15 -10 8 0 15 5 15 10 0 6 -7 10 -15 10 -8 0 -15 -4 -15 -10z"/>
 <path d="M5170 3690 c0 -5 7 -10 15 -10 8 0 15 5 15 10 0 6 -7 10 -15 10 -8 0 -15 -4 -15 -10z"/>
 <path d="M5180 3410 c0 -180 2 -210 15 -210 13 0 15 30 15 210 0 180 -2 210 -15 210 -13 0 -15 -30 -15 -210z"/>
 <path d="M6430 3365 c0 -8 5 -15 10 -15 6 0 10 7 10 15 0 8 -4 15 -10 15 -5 0 -10 -7 -10 -15z"/>
 <path d="M6680 3365 c0 -8 5 -15 10 -15 6 0 10 7 10 15 0 8 -4 15 -10 15 -5 0 -10 -7 -10 -15z"/>
 <path d="M6240 3280 c0 -5 5 -10 10 -10 6 0 10 5 10 10 0 6 -4 10 -10 10 -5 0 -10 -4 -10 -10z"/>
 <path d="M6710 3270 c0 -5 7 -10 15 -10 8 0 15 5 15 10 0 6 -7 10 -15 10 -8 0 -15 -4 -15 -10z"/>
 <path d="M6640 3170 c0 -5 5 -10 10 -10 6 0 10 5 10 10 0 6 -4 10 -10 10 -5 0 -10 -4 -10 -10z"/>
 <path d="M6575 3099 c-4 -6 -5 -13 -2 -16 7 -7 27 6 27 18 0 12 -17 12 -25 -2z"/>
 <path d="M3805 3053 c12 -48 34 -93 45 -93 6 0 10 6 8 13 -2 6 -10 33 -18 60 -8 27 -20 47 -28 47 -10 0 -12 -7 -7 -27z"/>
 <path d="M4462 3028 c-16 -59 -47 -106 -82 -126 -34 -19 -39 -32 -12 -32 21 0 84 62 105 105 8 17 18 45 22 63 10 50 -18 41 -33 -10z"/>
 <path d="M6040 3060 c0 -5 5 -10 10 -10 6 0 10 5 10 10 0 6 -4 10 -10 10 -5 0 -10 -4 -10 -10z"/>
 <path d="M6510 3020 c0 -5 5 -10 10 -10 6 0 10 5 10 10 0 6 -4 10 -10 10 -5 0 -10 -4 -10 -10z"/>
 <path d="M5130 2960 c0 -5 5 -10 10 -10 6 0 10 5 10 10 0 6 -4 10 -10 10 -5 0 -10 -4 -10 -10z"/>
 <path d="M6450 2950 c0 -5 5 -10 10 -10 6 0 10 5 10 10 0 6 -4 10 -10 10 -5 0 -10 -4 -10 -10z"/>
 <path d="M3870 2931 c0 -12 40 -41 57 -41 7 0 13 4 13 8 0 8 -14 16 -62 40 -5 2 -8 -1 -8 -7z"/>
 <path d="M5080 2910 c0 -5 5 -10 10 -10 6 0 10 5 10 10 0 6 -4 10 -10 10 -5 0 -10 -4 -10 -10z"/>
 <path d="M5040 2895 c0 -8 5 -15 10 -15 6 0 10 7 10 15 0 8 -4 15 -10 15 -5 0 -10 -7 -10 -15z"/>
 <path d="M3330 2885 c0 -10 10 -15 30 -15 20 0 30 5 30 15 0 10 -10 15 -30 15 -20 0 -30 -5 -30 -15z"/>
 <path d="M3970 2885 c0 -11 11 -15 40 -15 29 0 40 4 40 15 0 11 -11 15 -40 15 -29 0 -40 -4 -40 -15z"/>
 <path d="M4910 2885 c0 -9 9 -15 25 -15 16 0 25 6 25 15 0 9 -9 15 -25 15 -16 0 -25 -6 -25 -15z"/>
 <path d="M3540 2875 c0 -8 9 -15 20 -15 11 0 20 7 20 15 0 8 -9 15 -20 15 -11 0 -20 -7 -20 -15z"/>
 <path d="M4170 2875 c0 -11 11 -15 40 -15 29 0 40 4 40 15 0 11 -11 15 -40 15 -29 0 -40 -4 -40 -15z"/>
 <path d="M4700 2875 c0 -9 9 -15 25 -15 16 0 25 6 25 15 0 9 -9 15 -25 15 -16 0 -25 -6 -25 -15z"/>
 <path d="M3640 2865 c0 -8 5 -15 10 -15 6 0 10 7 10 15 0 8 -4 15 -10 15 -5 0 -10 -7 -10 -15z"/>
 <path d="M6350 2850 c0 -5 5 -10 10 -10 6 0 10 5 10 10 0 6 -4 10 -10 10 -5 0 -10 -4 -10 -10z"/>
 <path d="M6220 2775 c0 -8 5 -15 10 -15 6 0 10 7 10 15 0 8 -4 15 -10 15 -5 0 -10 -7 -10 -15z"/>
 <path d="M6086 2754 c-10 -26 -7 -34 14 -34 15 0 20 7 20 25 0 28 -24 34 -34 9z"/>
 <path d="M5943 2745 c-19 -20 -16 -35 6 -35 17 0 31 18 31 41 0 14 -23 10 -37 -6z"/>
 <path d="M6190 2730 c0 -5 5 -10 10 -10 6 0 10 5 10 10 0 6 -4 10 -10 10 -5 0 -10 -4 -10 -10z"/>
 <path d="M3180 2710 c0 -5 7 -10 15 -10 8 0 15 5 15 10 0 6 -7 10 -15 10 -8 0 -15 -4 -15 -10z"/>
 <path d="M3760 2710 c0 -5 7 -10 15 -10 8 0 15 5 15 10 0 6 -7 10 -15 10 -8 0 -15 -4 -15 -10z"/>
 <path d="M3770 2645 c0 -16 6 -25 15 -25 9 0 15 9 15 25 0 16 -6 25 -15 25 -9 0 -15 -9 -15 -25z"/>
 <path d="M6192 2658 c-14 -14 -16 -28 -3 -28 9 0 24 30 18 36 -2 2 -9 -2 -15 -8z"/>
 <path d="M5710 2640 c0 -5 5 -10 10 -10 6 0 10 5 10 10 0 6 -4 10 -10 10 -5 0 -10 -4 -10 -10z"/>
 <path d="M5655 2599 c-4 -6 -5 -13 -2 -16 7 -7 27 6 27 18 0 12 -17 12 -25 -2z"/>
 <path d="M6130 2580 c0 -5 5 -10 10 -10 6 0 10 5 10 10 0 6 -4 10 -10 10 -5 0 -10 -4 -10 -10z"/>
 <path d="M6070 2510 c0 -5 5 -10 10 -10 6 0 10 5 10 10 0 6 -4 10 -10 10 -5 0 -10 -4 -10 -10z"/>
 <path d="M5556 2484 c-4 -9 -4 -19 -2 -21 8 -8 26 8 26 23 0 19 -16 18 -24 -2z"/>
 <path d="M6010 2440 c0 -5 5 -10 10 -10 6 0 10 5 10 10 0 6 -4 10 -10 10 -5 0 -10 -4 -10 -10z"/>
 <path d="M5500 2414 c0 -17 22 -14 28 4 2 7 -3 12 -12 12 -9 0 -16 -7 -16 -16z"/>
 <path d="M5945 2369 c-4 -6 -5 -13 -2 -16 7 -7 27 6 27 18 0 12 -17 12 -25 -2z"/>
 <path d="M5460 2360 c0 -5 5 -10 10 -10 6 0 10 5 10 10 0 6 -4 10 -10 10 -5 0 -10 -4 -10 -10z"/>
 <path d="M5410 2305 c0 -8 5 -15 10 -15 6 0 10 7 10 15 0 8 -4 15 -10 15 -5 0 -10 -7 -10 -15z"/>
 <path d="M5850 2270 c0 -5 5 -10 10 -10 6 0 10 5 10 10 0 6 -4 10 -10 10 -5 0 -10 -4 -10 -10z"/>
 <path d="M5340 2200 c0 -5 7 -10 15 -10 8 0 15 5 15 10 0 6 -7 10 -15 10 -8 0 -15 -4 -15 -10z"/>
 <path d="M5685 2184 c-9 -13 -14 -14 -38 -3 -23 11 -30 10 -36 0 -6 -9 -19 -11 -40 -6 -21 4 -31 3 -31 -6 0 -8 -12 -10 -40 -6 -24 3 -40 1 -40 -5 0 -6 -12 -8 -27 -5 -15 3 -34 1 -42 -4 -9 -4 -34 -16 -56 -25 -79 -34 -145 -84 -145 -110 0 -15 6 -24 15 -24 8 0 15 8 15 18 0 17 76 70 130 90 38 14 330 53 343 45 18 -10 4 -53 -30 -94 -280 -332 -310 -355 -499 -393 -179 -37 -242 -42 -250 -22 -6 17 37 84 109 168 37 42 46 47 96 53 69 9 91 20 91 45 0 24 -13 26 -30 5 -7 -8 -24 -15 -39 -15 -62 0 -100 -20 -141 -73 -22 -29 -58 -74 -79 -102 -22 -27 -40 -59 -40 -71 -1 -30 30 -54 70 -54 38 0 241 34 303 51 98 27 201 118 404 358 77 91 94 131 68 160 -9 10 -16 23 -16 29 0 17 -13 15 -25 -4z"/>
 <path d="M3770 2125 c0 -16 6 -25 15 -25 9 0 15 9 15 25 0 16 -6 25 -15 25 -9 0 -15 -9 -15 -25z"/>
 <path d="M3420 1955 c0 -8 5 -15 10 -15 6 0 10 7 10 15 0 8 -4 15 -10 15 -5 0 -10 -7 -10 -15z"/>
 <path d="M3610 1925 c0 -8 5 -15 10 -15 6 0 10 7 10 15 0 8 -4 15 -10 15 -5 0 -10 -7 -10 -15z"/>
 </g>
<g id="layer17" fill="#25c301" stroke="none">
 <path d="M3455 3840 c-174 -11 -200 -25 -244 -139 -19 -48 -21 -73 -21 -320 0 -252 1 -273 22 -328 44 -119 75 -134 296 -141 l163 -5 44 46 c24 25 49 63 56 84 16 53 24 485 10 597 -11 96 -40 160 -85 189 -32 21 -102 26 -241 17z"/>
 <path d="M2870 3813 c-41 -2 -82 -6 -90 -10 -8 -3 -19 -5 -24 -4 -12 3 -76 -60 -76 -75 0 -6 -7 -25 -15 -40 -22 -42 -22 -537 0 -610 32 -108 89 -134 289 -134 129 0 149 9 189 83 21 40 22 55 25 332 4 325 0 352 -57 416 -34 39 -39 41 -101 44 -36 1 -99 0 -140 -2z"/>
 </g>
<g id="layer18" fill="#0001fc" stroke="none">
 <path d="M2985 4719 c-173 -19 -215 -29 -252 -62 -70 -61 -73 -77 -73 -398 0 -310 3 -330 55 -379 26 -25 29 -25 172 -22 186 4 219 19 256 122 24 64 25 598 2 653 -15 37 -62 98 -73 96 -4 -1 -43 -6 -87 -10z"/>
 <path d="M3936 2830 c-37 -12 -66 -39 -66 -60 0 -10 -6 -20 -14 -23 -28 -11 -36 -94 -36 -370 0 -296 7 -345 56 -417 42 -63 56 -68 309 -105 162 -24 182 -22 225 24 65 68 70 101 70 433 0 271 -2 299 -21 355 -15 46 -32 73 -67 106 -44 41 -52 44 -117 50 -140 13 -311 16 -339 7z"/>
 </g>
<g id="layer19" fill="#7a7f02" stroke="none">
 <path d="M4320 4925 c0 -8 7 -15 15 -15 8 0 15 7 15 15 0 8 -7 15 -15 15 -8 0 -15 -7 -15 -15z"/>
 <path d="M4220 4915 c0 -8 5 -15 10 -15 6 0 10 7 10 15 0 8 -4 15 -10 15 -5 0 -10 -7 -10 -15z"/>
 <path d="M4614 4902 c-19 -11 -36 -31 -46 -57 -9 -22 -19 -49 -24 -60 -14 -35 -15 -56 -20 -275 -7 -260 4 -399 35 -464 13 -25 29 -46 37 -46 8 0 14 -6 14 -14 0 -24 47 -46 97 -46 27 0 84 -4 128 -10 161 -19 232 -20 245 -5 7 8 20 15 29 15 16 0 41 41 41 67 0 8 7 16 15 19 12 5 14 56 14 335 0 201 -3 330 -9 334 -6 3 -10 18 -10 32 0 13 -9 36 -20 50 -11 14 -20 32 -20 40 0 8 -5 13 -12 11 -6 -2 -20 4 -30 14 -10 10 -28 18 -41 18 -13 0 -65 9 -116 20 -52 12 -99 19 -105 17 -6 -2 -19 0 -30 5 -34 18 -138 18 -172 0z m-7 -814 c-3 -8 -6 -5 -6 6 -1 11 2 17 5 13 3 -3 4 -12 1 -19z"/>
 <path d="M4080 4895 c0 -8 5 -15 10 -15 6 0 10 7 10 15 0 8 -4 15 -10 15 -5 0 -10 -7 -10 -15z"/>
 <path d="M3800 4120 c0 -5 7 -10 15 -10 8 0 15 5 15 10 0 6 -7 10 -15 10 -8 0 -15 -4 -15 -10z"/>
 <path d="M3970 3905 c0 -8 7 -15 15 -15 8 0 15 7 15 15 0 8 -7 15 -15 15 -8 0 -15 -7 -15 -15z"/>
 <path d="M4210 3875 c0 -8 7 -15 15 -15 8 0 15 7 15 15 0 8 -7 15 -15 15 -8 0 -15 -7 -15 -15z"/>
 <path d="M4675 3863 c-11 -2 -24 -10 -30 -17 -5 -7 -22 -20 -36 -29 -38 -25 -83 -117 -76 -154 3 -17 2 -34 -4 -40 -6 -6 -8 -92 -7 -214 3 -195 4 -204 23 -207 19 -3 20 3 20 190 0 119 4 195 10 198 6 3 11 -76 12 -225 0 -126 -2 -219 -6 -206 -3 14 -12 26 -19 29 -21 7 -32 -44 -22 -99 6 -29 10 -53 10 -55 0 -1 13 -5 29 -9 16 -3 37 -15 47 -26 17 -19 16 -19 -13 -13 -28 5 -30 4 -31 -25 0 -25 4 -32 23 -37 13 -3 29 -3 34 1 6 3 11 2 11 -4 0 -5 -4 -13 -10 -16 -15 -9 -12 -25 5 -25 8 0 17 11 21 25 6 24 24 35 24 15 0 -5 5 -10 11 -10 7 0 9 9 6 21 -4 17 -3 19 6 10 6 -6 25 -11 43 -11 19 0 34 -6 38 -15 5 -15 54 -16 256 -3 8 1 23 12 33 25 10 13 25 23 32 23 13 0 22 16 54 93 7 19 11 130 11 341 0 260 -2 315 -14 319 -8 3 -17 18 -20 34 -9 39 -74 90 -132 103 -26 6 -97 10 -158 9 -61 -1 -122 1 -136 4 -14 3 -34 3 -45 0z m-108 -220 c-4 -3 -7 0 -7 7 0 7 3 10 7 7 3 -4 3 -10 0 -14z m70 -555 c-2 -13 -4 -3 -4 22 0 25 2 35 4 23 2 -13 2 -33 0 -45z m-50 -25 c-3 -10 -5 -2 -5 17 0 19 2 27 5 18 2 -10 2 -26 0 -35z m490 -49 c-3 -3 -12 -4 -19 -1 -8 3 -5 6 6 6 11 1 17 -2 13 -5z m-234 -51 c-7 -2 -19 -2 -25 0 -7 3 -2 5 12 5 14 0 19 -2 13 -5z"/>
 <path d="M4580 3830 c0 -5 7 -10 15 -10 8 0 15 5 15 10 0 6 -7 10 -15 10 -8 0 -15 -4 -15 -10z"/>
 <path d="M4420 3820 c0 -5 5 -10 10 -10 6 0 10 5 10 10 0 6 -4 10 -10 10 -5 0 -10 -4 -10 -10z"/>
 <path d="M4070 2885 c0 -8 9 -15 20 -15 11 0 20 7 20 15 0 8 -9 15 -20 15 -11 0 -20 -7 -20 -15z"/>
 <path d="M3490 2875 c0 -8 9 -15 20 -15 11 0 20 7 20 15 0 8 -9 15 -20 15 -11 0 -20 -7 -20 -15z"/>
 </g>
<g id="layer20" fill="#fda501" stroke="none">
 <path d="M4235 4910 c-22 -4 -80 -13 -130 -20 -146 -19 -184 -36 -227 -100 -20 -30 -42 -74 -47 -97 -16 -60 -14 -585 2 -643 17 -66 59 -114 111 -129 44 -11 349 3 392 19 41 16 79 55 111 114 l28 51 3 306 c3 290 2 310 -18 370 -28 84 -43 106 -86 124 -39 16 -76 17 -139 5z"/>
 <path d="M4199 3866 c-3 -3 -60 -6 -127 -7 -67 -1 -131 -7 -143 -13 -27 -13 -80 -88 -97 -137 -17 -50 -17 -600 1 -666 7 -28 28 -64 54 -93 l41 -46 169 -12 c244 -18 247 -17 293 19 22 18 50 55 64 85 l26 55 0 329 c0 181 -4 331 -9 334 -4 3 -11 18 -14 34 -3 15 -25 48 -49 74 l-43 46 -80 1 c-45 1 -83 -1 -86 -3z"/>
 </g>
<g id="layer21" fill="#000000" stroke="none">
 <path d="M0 3375 l0 -3375 4500 0 4500 0 0 3375 0 3375 -4500 0 -4500 0 0 -3375z m4425 1865 c323 -54 364 -71 480 -201 80 -89 100 -119 82 -119 -8 0 -115 16 -238 36 -123 19 -239 33 -256 30 -29 -4 -37 1 -74 42 -98 111 -145 193 -122 215 8 9 65 8 128 -3z m680 -116 c151 -26 230 -55 297 -107 45 -36 289 -320 304 -354 29 -66 20 -68 -174 -42 -125 16 -171 26 -224 51 -37 17 -74 38 -82 47 -10 11 -16 43 -18 91 l-3 75 -73 8 -72 9 -71 86 c-78 94 -95 123 -86 146 8 21 26 20 202 -10z m-250 -224 c196 -28 222 -34 252 -62 34 -30 71 -111 79 -170 6 -43 10 -49 63 -82 81 -51 85 -56 236 -237 163 -196 196 -258 144 -274 -25 -8 -330 13 -379 26 -53 14 -58 12 -65 -29 -10 -59 -59 -137 -95 -152 -42 -18 -417 3 -460 25 -34 17 -62 55 -87 116 -16 39 -18 78 -18 379 0 302 2 339 18 380 10 25 26 53 35 64 24 26 73 46 102 41 14 -2 93 -14 175 -25z m-454 -1 c39 -28 67 -85 79 -161 5 -35 8 -187 6 -338 -3 -297 -9 -335 -63 -408 -45 -61 -79 -68 -333 -77 -141 -5 -158 -4 -186 14 -37 23 -73 92 -82 158 -10 67 -35 66 -43 -2 -7 -59 -41 -134 -73 -164 -28 -26 -92 -37 -272 -46 l-131 -6 -33 27 c-38 32 -70 101 -70 150 0 24 -5 34 -15 34 -10 0 -15 -10 -15 -34 0 -72 -50 -166 -99 -185 -14 -5 -98 -13 -187 -17 l-161 -6 -21 26 c-50 65 -53 90 -50 411 l3 300 27 52 c15 28 33 55 39 58 15 10 286 55 330 55 30 0 43 -7 67 -35 32 -35 52 -89 52 -137 0 -17 5 -28 14 -28 9 0 15 18 19 55 6 56 38 125 73 157 31 27 165 54 321 65 67 5 87 3 107 -11 37 -24 78 -110 78 -162 0 -30 4 -44 13 -44 15 0 25 22 25 55 0 71 59 172 119 205 30 15 296 58 374 59 45 1 66 -4 88 -20z m1164 -319 c180 -24 231 -45 322 -132 91 -88 313 -354 313 -377 0 -41 -21 -44 -178 -32 -231 19 -282 48 -470 274 -150 180 -182 225 -182 252 0 42 -3 42 195 15z m-83 -540 c178 -12 237 -29 319 -94 46 -36 260 -285 350 -406 36 -48 51 -97 38 -121 -9 -18 -23 -19 -192 -19 -168 0 -186 2 -239 24 -99 40 -151 90 -316 299 -194 245 -214 281 -180 315 15 15 26 15 220 2z m588 -45 c58 -4 123 -11 145 -16 73 -19 160 -86 263 -203 217 -247 252 -293 252 -337 0 -25 -4 -28 -45 -35 -25 -3 -101 -5 -168 -2 -111 3 -127 7 -181 33 -32 17 -76 46 -99 65 -50 43 -345 396 -358 428 -18 45 -11 70 19 75 15 2 36 2 47 1 11 -2 67 -6 125 -9z m-1697 -132 c40 -20 51 -34 85 -103 l27 -55 0 -320 c0 -361 -4 -389 -65 -458 l-38 -42 -208 3 c-115 1 -224 7 -242 13 -42 14 -79 64 -103 140 -17 53 -19 93 -19 324 0 335 15 409 93 469 31 24 41 25 202 31 93 3 171 8 174 11 10 10 64 3 94 -13z m664 -8 c45 -5 57 -12 86 -45 61 -71 67 -111 67 -437 0 -276 -1 -294 -22 -348 -28 -75 -76 -121 -131 -129 -23 -3 -121 -8 -218 -12 l-177 -7 -43 44 c-73 73 -77 100 -79 455 -1 286 1 308 20 362 31 84 67 121 126 131 38 6 279 -3 371 -14z m-1335 -37 c17 -11 40 -42 52 -67 20 -43 21 -65 24 -344 4 -316 -2 -372 -40 -431 -42 -65 -59 -69 -244 -61 -183 9 -213 17 -251 74 -24 36 -45 100 -45 139 0 12 -6 22 -14 22 -7 0 -12 -8 -12 -17 3 -34 -34 -125 -64 -159 -29 -33 -32 -34 -107 -34 -42 0 -119 5 -171 10 -88 8 -97 11 -122 39 -53 59 -60 112 -56 414 l3 272 27 50 c14 28 36 56 49 64 27 16 289 31 335 19 17 -4 38 -16 47 -26 20 -22 57 -125 57 -159 0 -14 6 -23 15 -23 10 0 15 10 15 28 0 67 49 171 88 188 28 11 140 21 265 23 107 1 122 -1 149 -21z m2484 -470 c4 -5 7 -24 6 -43 -2 -39 -35 -89 -170 -249 -95 -114 -117 -144 -110 -152 3 -3 46 44 95 103 193 233 245 284 333 324 39 18 66 21 212 22 149 2 167 0 177 -16 23 -35 -8 -82 -194 -297 -130 -149 -192 -207 -260 -240 -54 -27 -76 -31 -222 -42 -131 -9 -165 -9 -177 1 -18 15 -13 49 12 93 27 47 4 43 -50 -9 -29 -27 -84 -65 -122 -83 -67 -33 -73 -34 -253 -44 -165 -8 -186 -8 -200 7 -32 32 -1 89 155 287 81 102 169 206 196 232 51 50 150 104 201 112 50 7 363 2 371 -6z m-3159 -454 c55 -7 85 -32 114 -96 24 -52 24 -59 24 -343 0 -264 -2 -295 -20 -343 -14 -38 -29 -59 -52 -73 -33 -20 -35 -21 -151 -5 -172 24 -199 32 -231 69 -52 57 -63 136 -59 422 3 240 4 252 27 304 33 73 55 82 196 75 61 -3 129 -7 152 -10z m513 -23 c142 -10 170 -24 208 -101 l27 -55 0 -330 0 -330 -25 -45 c-15 -26 -40 -53 -60 -64 -35 -18 -37 -18 -209 7 -168 25 -175 27 -208 58 -66 65 -72 101 -72 426 0 321 4 346 60 405 34 37 38 38 100 37 35 0 116 -4 179 -8z m661 -30 c177 -11 211 -29 261 -136 22 -49 23 -57 23 -395 l0 -345 -28 -51 c-37 -67 -68 -84 -152 -84 -86 0 -351 46 -387 68 -16 9 -39 32 -51 52 -51 78 -52 84 -52 425 0 362 4 388 73 445 42 34 65 36 313 21z m900 -18 c36 -21 81 -108 82 -158 1 -21 6 -35 14 -35 7 0 13 4 13 9 0 18 66 30 220 41 85 6 160 12 165 14 6 2 20 0 33 -5 24 -9 29 -40 12 -85 -16 -42 -5 -40 47 6 26 24 76 56 111 73 56 26 81 31 220 42 190 15 208 10 183 -57 -13 -34 -283 -346 -339 -391 -61 -49 -114 -77 -165 -85 -27 -5 -42 -13 -42 -22 0 -14 5 -16 49 -19 30 -2 13 -55 -36 -115 -207 -251 -314 -348 -415 -375 -76 -21 -277 -52 -312 -49 -35 3 -36 4 -35 41 1 20 0 37 -3 37 -2 0 -27 -19 -56 -43 -79 -64 -153 -92 -324 -121 -189 -32 -229 -33 -238 -6 -3 11 -3 30 1 43 12 37 147 208 169 212 11 2 52 6 90 10 113 10 145 16 145 31 0 8 -10 14 -22 14 -40 0 -86 37 -115 92 l-28 53 0 330 c0 324 0 331 24 387 30 75 84 124 143 132 51 7 135 11 276 14 83 2 110 -1 133 -15z"/>
 <path d="M5480 2399 c-129 -156 -176 -202 -246 -238 -38 -20 -43 -27 -49 -69 -16 -109 -78 -194 -150 -208 -22 -4 -35 -12 -35 -21 0 -13 8 -14 43 -9 164 26 167 28 167 116 0 42 5 61 18 73 25 23 134 77 154 77 24 0 23 22 -2 38 -42 26 -23 63 124 239 61 74 113 139 114 144 12 32 -29 -10 -138 -142z"/>
 <path d="M5580 2165 c0 -9 9 -15 25 -15 16 0 25 6 25 15 0 9 -9 15 -25 15 -16 0 -25 -6 -25 -15z"/>
 <path d="M5510 2155 c0 -9 9 -15 25 -15 16 0 25 6 25 15 0 9 -9 15 -25 15 -16 0 -25 -6 -25 -15z"/>
 <path d="M5430 2145 c0 -10 10 -15 30 -15 20 0 30 5 30 15 0 10 -10 15 -30 15 -20 0 -30 -5 -30 -15z"/>
 <path d="M4930 1855 c0 -8 7 -15 15 -15 8 0 15 7 15 15 0 8 -7 15 -15 15 -8 0 -15 -7 -15 -15z"/>
 </g>

</svg>