<!DOCTYPE svg PUBLIC "-//W3C//DTD SVG 20010904//EN" "http://www.w3.org/TR/2001/REC-SVG-20010904/DTD/svg10.dtd">
<svg version="1.0" xmlns="http://www.w3.org/2000/svg" width="1600px" height="1000px" viewBox="0 0 16000 10000" preserveAspectRatio="xMidYMid meet">
<g id="layer1" fill="#2aa7f7" stroke="none">
 <path d="M9262 6433 c-186 -453 -184 -447 -178 -484 3 -20 41 -113 85 -205 59 -126 83 -169 97 -169 13 0 35 42 91 175 105 249 143 349 143 375 0 42 -162 399 -183 403 -10 2 -27 -27 -55 -95z"/>
 <path d="M9520 5954 c-6 -14 -53 -131 -105 -260 -54 -133 -95 -249 -95 -267 1 -18 35 -108 79 -202 95 -209 102 -213 148 -93 18 46 64 161 102 257 40 99 71 189 71 209 0 32 -16 73 -118 299 -40 89 -64 106 -82 57z"/>
 <path d="M8961 5733 c-105 -251 -191 -476 -191 -502 0 -18 33 -96 80 -191 44 -88 85 -172 90 -186 21 -55 42 -26 116 161 40 99 88 219 108 267 20 47 36 102 36 122 0 44 -171 406 -192 406 -8 0 -28 -34 -47 -77z"/>
 <path d="M9741 5438 c-10 -24 -21 -54 -26 -68 -4 -14 -18 -50 -31 -80 -71 -168 -124 -317 -124 -351 0 -46 145 -369 165 -369 8 0 38 65 70 148 31 81 67 174 80 207 49 126 66 189 60 214 -3 14 -23 64 -44 111 -21 47 -52 117 -68 155 -37 85 -56 93 -82 33z"/>
 <path d="M9204 5213 c-80 -176 -194 -479 -194 -514 0 -29 22 -83 85 -209 49 -99 91 -170 99 -170 9 0 35 55 71 148 32 81 78 194 102 251 78 184 79 158 -20 366 -48 99 -94 181 -102 183 -10 2 -24 -16 -41 -55z"/>
 <path d="M8686 5052 c-2 -4 -13 -30 -24 -57 -11 -28 -60 -150 -111 -273 -63 -154 -91 -234 -91 -263 0 -31 20 -78 92 -215 110 -207 115 -210 160 -94 16 41 65 165 109 275 47 118 79 215 79 236 0 24 -28 91 -90 217 -82 168 -107 202 -124 174z"/>
 <path d="M9426 4658 c-110 -279 -166 -432 -165 -452 0 -33 162 -351 178 -351 15 0 21 14 96 210 21 55 58 149 82 210 24 60 43 126 43 146 0 49 -147 359 -170 359 -11 0 -31 -36 -64 -122z"/>
 <path d="M8914 4493 c-69 -160 -205 -514 -210 -544 -6 -33 4 -56 86 -208 64 -119 97 -171 109 -171 13 0 35 46 90 183 130 320 153 388 146 422 -9 47 -171 350 -188 353 -11 2 -22 -10 -33 -35z"/>
 <path d="M9170 4015 c-7 -20 -54 -143 -106 -273 -61 -154 -94 -250 -94 -275 0 -30 20 -76 82 -193 52 -96 89 -154 98 -154 11 0 48 82 125 278 60 152 110 286 112 297 2 11 -35 95 -82 188 -94 182 -112 200 -135 132z"/>
 </g>
<g id="layer2" fill="#dd3e4d" stroke="none">
 <path d="M6082 4737 c6 -31 219 -375 238 -383 27 -12 540 -93 589 -94 19 0 23 4 19 23 -7 35 -206 364 -225 371 -17 7 -594 106 -615 106 -6 0 -8 -10 -6 -23z"/>
 <path d="M6870 4588 c0 -25 201 -357 223 -370 19 -10 555 -98 601 -98 20 0 36 5 36 10 0 14 -189 340 -210 363 -12 13 -86 29 -316 67 -164 27 -307 50 -316 50 -12 0 -18 -8 -18 -22z"/>
 <path d="M7680 4457 c0 -13 22 -61 48 -107 27 -47 70 -124 96 -173 26 -48 55 -91 65 -96 9 -5 61 -17 116 -26 55 -9 186 -32 291 -51 106 -19 204 -34 219 -34 24 0 26 3 21 25 -3 13 -47 101 -98 195 -63 118 -98 174 -113 180 -19 7 -616 110 -637 110 -5 0 -8 -10 -8 -23z"/>
 <path d="M6380 4251 c0 -10 25 -58 57 -107 31 -49 66 -105 78 -124 65 -105 78 -122 99 -130 13 -5 118 -25 233 -45 114 -20 227 -40 250 -45 65 -15 103 -13 103 7 0 9 -45 92 -100 183 -75 127 -106 170 -127 178 -15 6 -73 18 -128 27 -55 9 -174 30 -264 46 -194 34 -201 35 -201 10z"/>
 <path d="M7150 4115 c0 -8 17 -41 37 -73 46 -72 69 -109 124 -199 24 -40 50 -75 58 -78 18 -7 512 -96 574 -102 34 -4 47 -2 47 7 0 27 -188 339 -215 355 -11 7 -114 30 -230 50 -115 19 -232 40 -258 45 -75 15 -137 13 -137 -5z"/>
 <path d="M7940 3963 c0 -9 31 -69 69 -132 37 -64 80 -137 95 -163 15 -26 36 -52 47 -58 11 -6 122 -29 247 -50 125 -22 251 -44 281 -50 81 -15 101 -13 101 10 0 27 -179 347 -199 356 -20 8 -587 104 -618 104 -15 0 -23 -6 -23 -17z"/>
 <path d="M6680 3770 c0 -18 56 -114 166 -287 32 -49 36 -52 101 -67 99 -22 409 -77 471 -83 47 -5 52 -4 52 15 0 11 -36 81 -79 155 -103 175 -110 185 -129 191 -35 11 -524 96 -553 96 -22 0 -29 -5 -29 -20z"/>
 <path d="M7440 3644 c0 -21 181 -320 202 -333 26 -16 585 -124 599 -115 5 3 9 11 9 18 0 21 -181 326 -199 335 -9 5 -117 28 -241 50 -124 23 -247 46 -273 51 -70 14 -97 13 -97 -6z"/>
 <path d="M8220 3493 c1 -10 43 -90 94 -178 l94 -160 103 -22 c157 -33 417 -81 477 -89 44 -6 52 -4 52 10 0 26 -170 326 -193 340 -12 8 -53 19 -92 26 -38 6 -162 29 -273 51 -233 45 -262 47 -262 22z"/>
 </g>
<g id="layer3" fill="#fdd71f" stroke="none">
 <path d="M6982 6842 c-27 -27 -232 -486 -232 -519 l0 -29 193 -27 c285 -40 402 -51 422 -40 16 9 64 111 196 410 27 61 49 115 49 120 -1 27 -28 34 -199 53 -101 12 -229 27 -285 35 -127 18 -123 18 -144 -3z"/>
 <path d="M7746 6747 c-35 -52 -216 -493 -216 -524 0 -18 2 -33 5 -33 2 0 127 -16 277 -35 301 -39 341 -41 356 -22 6 7 43 89 82 182 40 94 87 206 106 249 19 44 34 92 34 107 0 26 -3 28 -57 34 -32 4 -166 20 -298 36 -132 16 -248 29 -257 29 -10 0 -24 -10 -32 -23z"/>
 <path d="M8543 6658 c-5 -7 -28 -58 -51 -113 -22 -55 -70 -169 -106 -254 -36 -85 -66 -164 -66 -177 0 -27 -14 -23 240 -58 272 -38 363 -48 394 -44 26 3 33 12 64 83 127 296 182 438 182 469 l0 34 -102 11 c-57 7 -188 23 -291 37 -214 27 -251 29 -264 12z"/>
 <path d="M6613 6053 c-119 -256 -193 -427 -193 -449 0 -28 -9 -25 210 -58 259 -38 342 -48 384 -44 l39 3 115 250 c63 138 117 266 119 286 6 41 10 39 -117 54 -25 3 -127 16 -227 30 -100 14 -205 25 -233 25 l-51 0 -46 -97z"/>
 <path d="M7441 6037 c-6 -8 -24 -45 -40 -83 -16 -38 -64 -148 -107 -244 -51 -115 -77 -188 -78 -215 l-1 -39 90 -12 c50 -6 170 -23 268 -38 196 -29 270 -32 284 -13 5 6 47 98 93 202 155 355 160 370 118 380 -13 3 -95 14 -183 25 -88 12 -207 27 -264 35 -129 18 -165 19 -180 2z"/>
 <path d="M8233 5928 c-6 -7 -43 -92 -83 -188 -40 -96 -90 -217 -112 -269 -21 -51 -38 -101 -36 -110 4 -21 19 -24 328 -66 278 -38 332 -42 348 -22 5 6 49 107 96 222 48 116 95 229 106 253 11 23 20 58 20 76 0 41 15 37 -245 71 -104 13 -221 29 -260 34 -95 14 -151 14 -162 -1z"/>
 <path d="M6211 5178 c-123 -266 -140 -321 -103 -332 9 -3 67 -12 127 -20 61 -9 188 -27 284 -41 151 -22 177 -24 195 -11 12 8 47 74 85 162 35 82 86 198 113 258 26 60 48 124 48 141 l0 31 -262 37 c-145 21 -286 37 -314 37 l-51 0 -122 -262z"/>
 <path d="M7116 5312 c-2 -4 -37 -82 -77 -172 -39 -91 -91 -210 -115 -265 -24 -55 -44 -114 -44 -131 0 -31 1 -32 64 -43 35 -6 112 -18 172 -26 60 -9 163 -25 228 -36 66 -11 135 -19 155 -17 l35 3 118 280 c64 154 117 292 117 307 1 24 -3 27 -46 33 -27 4 -150 22 -275 41 -224 34 -322 41 -332 26z"/>
 <path d="M7932 5192 c-15 -10 -242 -555 -242 -581 0 -30 18 -37 140 -55 63 -9 200 -31 303 -47 103 -17 199 -28 211 -25 19 5 32 27 64 103 80 192 192 481 192 497 0 9 -10 20 -22 25 -22 8 -479 77 -583 87 -27 3 -56 1 -63 -4z"/>
 </g>

</svg>