<!DOCTYPE svg PUBLIC "-//W3C//DTD SVG 20010904//EN" "http://www.w3.org/TR/2001/REC-SVG-20010904/DTD/svg10.dtd">
<svg version="1.0" xmlns="http://www.w3.org/2000/svg" width="1600px" height="1000px" viewBox="0 0 16000 10000" preserveAspectRatio="xMidYMid meet">
<g id="layer1" fill="#2aa7f7" stroke="none">
 <path d="M9291 6513 c-5 -10 -25 -56 -44 -103 -174 -424 -178 -434 -171 -463 3 -16 43 -109 89 -206 63 -136 87 -176 101 -176 15 0 35 39 97 185 43 102 94 227 114 278 34 88 35 96 23 130 -19 53 -151 345 -163 360 -14 17 -35 15 -46 -5z"/>
 <path d="M9527 5983 c-18 -30 -217 -539 -217 -554 0 -29 162 -380 178 -386 20 -8 35 14 70 102 17 44 63 158 102 254 38 96 70 186 70 199 0 13 -16 61 -36 106 -88 198 -118 262 -127 274 -10 13 -33 16 -40 5z"/>
 <path d="M8987 5803 c-27 -46 -227 -549 -227 -572 0 -11 38 -97 85 -190 47 -94 85 -174 85 -179 0 -5 9 -17 21 -28 20 -18 21 -18 34 -1 7 9 45 99 84 200 40 100 88 218 107 263 19 45 34 94 33 110 0 40 -179 398 -201 402 -9 2 -18 -1 -21 -5z"/>
 <path d="M9736 5438 c-13 -29 -27 -64 -31 -78 -4 -14 -18 -50 -31 -80 -66 -156 -124 -316 -124 -344 1 -17 36 -105 78 -196 98 -209 99 -210 164 -46 55 138 77 195 124 329 l35 97 -25 58 c-151 358 -149 354 -190 260z"/>
 <path d="M9223 5258 c-31 -39 -223 -521 -223 -560 0 -35 165 -367 186 -375 8 -3 20 -1 25 4 5 5 41 88 79 184 37 96 87 221 110 278 l42 104 -47 101 c-122 264 -145 298 -172 264z"/>
 <path d="M8682 5048 c-5 -7 -19 -35 -30 -63 -10 -27 -60 -150 -111 -273 -50 -122 -91 -236 -91 -253 0 -29 164 -356 196 -388 20 -22 44 4 73 81 13 35 62 157 108 273 45 115 83 221 83 236 0 36 -181 393 -201 397 -9 2 -21 -3 -27 -10z"/>
 <path d="M9472 4778 c-17 -21 -222 -551 -222 -572 2 -28 177 -361 190 -361 15 0 32 39 105 230 21 55 58 149 82 210 24 60 43 123 42 140 0 33 -157 358 -175 363 -6 1 -16 -3 -22 -10z"/>
 <path d="M8909 4493 c-51 -116 -207 -513 -214 -541 -5 -27 7 -56 85 -201 99 -184 113 -203 135 -180 12 13 163 380 216 528 l23 64 -96 186 c-57 113 -102 187 -112 189 -11 2 -22 -11 -37 -45z"/>
 <path d="M9182 4048 c-6 -7 -28 -60 -50 -118 -22 -58 -70 -179 -106 -270 -36 -91 -66 -178 -66 -194 0 -27 146 -314 176 -346 12 -13 16 -13 28 0 8 8 64 143 125 299 l112 284 -82 161 c-99 195 -112 213 -137 184z"/>
 </g>
<g id="layer2" fill="#dd3e4d" stroke="none">
 <path d="M6081 4756 c-7 -8 -9 -21 -5 -28 79 -138 232 -371 248 -380 35 -19 578 -103 603 -94 9 4 13 14 10 24 -9 37 -209 363 -231 377 -12 8 -143 35 -292 60 -148 25 -281 47 -295 50 -16 4 -30 0 -38 -9z"/>
 <path d="M6870 4605 c-7 -8 -10 -22 -6 -30 15 -40 213 -349 231 -361 23 -15 565 -107 604 -102 14 2 27 10 29 18 3 19 -178 334 -211 367 -20 21 -59 30 -323 73 -164 27 -302 50 -305 50 -4 0 -12 -7 -19 -15z"/>
 <path d="M7679 4474 c-10 -13 -8 -25 14 -67 74 -144 175 -312 197 -328 15 -11 73 -26 145 -38 66 -11 200 -34 298 -51 98 -18 184 -29 192 -26 27 10 16 44 -72 208 -98 185 -112 204 -156 212 -219 38 -540 94 -569 99 -26 4 -40 1 -49 -9z"/>
 <path d="M6374 4265 c-6 -15 8 -40 91 -170 25 -38 54 -86 64 -106 28 -51 70 -99 97 -109 12 -5 116 -25 231 -45 114 -20 227 -40 250 -45 60 -14 93 -12 99 5 9 23 -191 352 -227 374 -16 10 -77 25 -136 35 -60 10 -182 30 -272 47 -190 34 -190 34 -197 14z"/>
 <path d="M7144 4126 c-3 -8 11 -40 32 -73 40 -63 55 -86 130 -206 27 -43 56 -83 65 -88 16 -8 483 -94 575 -106 74 -9 72 -5 -78 246 -38 63 -78 121 -89 129 -27 18 -44 22 -327 71 -253 45 -300 49 -308 27z"/>
 <path d="M7934 3975 c-5 -13 32 -81 169 -312 14 -23 36 -49 50 -57 14 -10 122 -33 253 -56 126 -22 257 -45 292 -51 67 -12 92 -8 92 15 0 27 -184 348 -208 364 -19 12 -570 111 -625 112 -10 0 -20 -7 -23 -15z"/>
 <path d="M6677 3793 c-14 -14 -5 -37 51 -126 32 -51 70 -113 85 -139 51 -88 71 -105 145 -122 128 -29 427 -80 472 -80 33 -1 45 3 48 15 3 15 -137 264 -184 326 -13 17 -32 34 -41 37 -30 10 -523 96 -547 96 -12 0 -26 -3 -29 -7z"/>
 <path d="M7434 3656 c-7 -19 180 -330 211 -350 22 -14 148 -42 441 -96 130 -23 163 -25 170 -7 6 17 -159 304 -196 338 -19 19 -47 30 -91 38 -35 6 -161 29 -279 51 -242 45 -248 46 -256 26z"/>
 <path d="M8214 3506 c-5 -13 160 -311 192 -347 15 -17 68 -29 379 -88 235 -44 240 -44 254 -28 10 12 -4 44 -74 170 -47 86 -98 167 -114 180 -19 16 -52 27 -102 36 -41 7 -166 30 -277 52 -225 43 -250 46 -258 25z"/>
 </g>
<g id="layer3" fill="#fdd71f" stroke="none">
 <path d="M6982 6843 c-30 -30 -242 -487 -242 -521 0 -11 6 -24 13 -29 12 -10 294 -52 491 -74 91 -10 101 -9 123 8 15 11 50 75 90 163 169 378 168 375 140 399 -8 6 -76 18 -153 26 -143 16 -343 41 -402 51 -26 4 -38 0 -60 -23z"/>
 <path d="M7751 6756 c-26 -28 -231 -499 -231 -531 0 -13 6 -28 14 -34 7 -6 146 -28 309 -48 l296 -38 25 24 c14 13 36 51 50 85 14 33 61 147 105 251 45 105 81 197 81 206 0 25 -21 37 -75 44 -28 3 -160 19 -295 35 -135 17 -247 30 -251 30 -3 0 -16 -11 -28 -24z"/>
 <path d="M8545 6660 c-10 -11 -60 -120 -112 -242 -136 -321 -130 -305 -112 -324 16 -15 254 -53 532 -85 102 -12 109 -12 126 7 11 10 51 93 89 184 152 359 157 375 130 398 -7 6 -60 16 -118 22 -58 7 -187 23 -288 36 -221 29 -224 29 -247 4z"/>
 <path d="M6657 6142 c-16 -18 -48 -85 -173 -361 -73 -161 -83 -194 -64 -206 19 -12 517 -85 579 -85 24 0 44 7 53 18 20 21 237 496 244 532 4 16 0 31 -9 38 -8 7 -84 21 -168 32 -85 11 -201 26 -259 35 -140 20 -183 19 -203 -3z"/>
 <path d="M7442 6037 c-12 -12 -34 -54 -51 -92 -16 -39 -64 -149 -106 -245 -81 -183 -96 -232 -74 -246 7 -4 56 -13 108 -20 53 -7 174 -25 269 -39 215 -31 243 -32 269 -2 18 20 200 425 234 520 13 36 12 40 -8 56 -13 11 -57 22 -124 30 -57 7 -182 24 -278 37 -213 29 -213 29 -239 1z"/>
 <path d="M8233 5928 c-11 -13 -53 -102 -93 -198 -40 -96 -90 -217 -112 -269 -37 -88 -38 -94 -22 -112 19 -21 -1 -17 334 -64 304 -42 310 -42 337 -12 12 12 60 117 107 232 48 116 95 229 106 253 24 51 25 85 5 102 -8 7 -79 21 -157 31 -79 11 -207 29 -286 39 -181 25 -194 25 -219 -2z"/>
 <path d="M6326 5428 c-36 -56 -246 -525 -246 -550 0 -36 13 -41 160 -62 63 -9 189 -27 280 -40 158 -24 166 -24 190 -7 30 21 34 29 156 307 101 229 115 273 92 291 -15 12 -509 83 -575 83 -33 0 -46 -5 -57 -22z"/>
 <path d="M7117 5313 c-8 -10 -48 -92 -87 -183 -40 -91 -92 -210 -116 -265 -46 -105 -52 -136 -31 -154 8 -6 74 -20 148 -31 74 -12 202 -32 286 -45 180 -30 195 -30 216 -7 17 19 247 564 247 586 0 26 -27 36 -141 52 -63 8 -184 26 -269 40 -187 29 -231 30 -253 7z"/>
 <path d="M7932 5193 c-30 -24 -255 -568 -246 -595 8 -26 32 -34 159 -53 61 -9 195 -30 298 -47 171 -27 190 -29 211 -15 25 17 53 81 181 404 83 211 84 227 22 237 -41 7 -497 73 -557 81 -36 5 -51 3 -68 -12z"/>
 </g>
<g id="layer4" fill="#272727" stroke="none">
 <path d="M0 5000 l0 -5000 8000 0 8000 0 0 5000 0 5000 -8000 0 -8000 0 0 -5000z m7190 1825 c63 -8 178 -22 254 -30 82 -9 143 -20 147 -27 4 -7 2 -26 -6 -42 -128 -298 -213 -479 -229 -488 -18 -10 -117 -1 -403 39 -174 24 -193 29 -193 46 0 26 210 487 232 509 14 14 28 17 51 13 18 -3 84 -12 147 -20z m835 -94 c132 -16 266 -32 298 -36 69 -8 70 -11 23 -121 -19 -43 -66 -155 -106 -249 -39 -93 -78 -177 -86 -185 -12 -13 -42 -11 -242 14 -376 46 -372 45 -372 70 0 23 189 473 216 513 8 13 18 23 22 23 4 0 115 -13 247 -29z m772 -95 c103 -14 234 -30 291 -37 97 -11 102 -12 102 -35 0 -13 -16 -63 -36 -111 -84 -204 -177 -419 -185 -427 -5 -6 -50 -5 -116 3 -181 21 -515 69 -521 76 -3 3 1 25 10 48 28 71 203 481 211 495 11 16 28 16 244 -12z m600 -286 c107 -238 103 -212 60 -322 -68 -175 -184 -443 -191 -443 -10 0 -162 322 -170 362 -7 29 -3 40 176 476 23 54 44 95 48 90 4 -4 39 -78 77 -163z m-2464 -235 c100 -14 202 -27 227 -30 122 -15 123 -15 117 -44 -3 -15 -57 -140 -120 -277 -131 -286 -108 -264 -262 -244 -114 15 -413 59 -442 65 -13 3 -23 12 -23 19 0 13 92 223 193 439 l46 97 41 0 c22 0 123 -11 223 -25z m748 -99 c96 -13 220 -30 276 -36 129 -16 131 -18 114 -67 -20 -57 -213 -496 -224 -510 -14 -19 -66 -16 -264 13 -98 15 -218 32 -268 38 l-90 12 1 29 c1 17 36 109 79 205 42 96 90 206 106 244 35 83 45 96 74 96 12 0 100 -11 196 -24z m1911 -129 c99 -220 118 -266 118 -289 0 -14 -32 -103 -71 -199 -38 -96 -84 -211 -102 -256 -18 -46 -36 -81 -42 -80 -13 5 -164 337 -165 364 0 12 43 127 95 257 52 129 99 246 105 260 5 14 13 26 17 26 5 0 25 -37 45 -83z m-1207 32 c39 -5 156 -21 260 -34 251 -33 245 -32 245 -61 0 -13 -9 -43 -20 -66 -11 -24 -58 -137 -106 -253 -47 -115 -91 -216 -96 -222 -15 -19 -46 -17 -328 22 -324 45 -318 44 -325 55 -3 5 12 51 33 102 22 51 72 172 112 268 40 96 77 181 83 188 11 15 49 15 142 1z m716 -304 c49 -102 89 -198 89 -212 0 -14 -15 -62 -34 -107 -19 -45 -67 -162 -106 -261 -39 -99 -75 -184 -80 -189 -6 -6 -13 1 -19 17 -6 15 -47 99 -91 187 -44 88 -80 170 -80 181 0 25 217 569 228 569 2 0 44 -83 93 -185z m700 -192 c24 -55 70 -163 105 -245 l24 -57 -21 -63 c-11 -35 -31 -90 -44 -123 -13 -33 -49 -127 -80 -209 l-58 -149 -15 29 c-54 103 -142 309 -142 333 0 25 61 193 124 341 13 30 27 66 31 80 13 41 44 110 50 110 3 0 15 -21 26 -47z m-3113 -30 c250 -35 262 -38 262 -58 0 -12 -22 -71 -48 -131 -27 -60 -78 -176 -113 -258 -36 -85 -73 -154 -84 -161 -17 -11 -48 -9 -185 11 -91 13 -214 31 -275 39 -139 20 -145 22 -145 48 0 12 54 140 121 285 l122 262 41 0 c22 0 159 -16 304 -37z m750 -117 c125 -19 248 -37 275 -41 30 -4 47 -11 47 -20 0 -28 -235 -577 -249 -583 -8 -3 -62 2 -120 12 -58 9 -167 26 -241 37 -252 37 -260 38 -260 63 0 12 20 66 44 121 24 55 76 174 115 265 40 90 75 168 77 172 9 15 84 8 312 -26z m1901 -204 c94 -198 93 -165 16 -347 -23 -55 -68 -166 -100 -247 -31 -82 -59 -148 -61 -148 -11 0 -174 344 -174 369 0 15 38 122 84 237 107 267 135 329 145 318 4 -5 44 -87 90 -182z m-1058 72 c125 -19 238 -34 251 -34 13 0 32 -6 42 -13 17 -13 14 -25 -58 -208 -122 -309 -156 -387 -174 -394 -9 -3 -102 8 -207 25 -104 16 -241 38 -304 48 -74 11 -117 23 -123 32 -7 11 23 95 106 294 63 154 121 283 128 288 15 10 42 7 339 -38z m519 -276 c50 -100 90 -193 90 -207 0 -14 -36 -116 -79 -226 -44 -110 -93 -234 -109 -274 -16 -41 -33 -76 -38 -78 -15 -5 -194 342 -194 376 0 17 41 131 91 253 51 123 100 245 111 273 22 55 27 65 34 65 3 0 45 -82 94 -182z m773 -259 c42 -89 77 -174 77 -189 0 -15 -7 -45 -16 -66 -18 -43 -83 -209 -146 -376 -22 -60 -44 -108 -48 -108 -8 0 -170 323 -170 339 0 9 84 232 166 439 26 67 51 122 54 122 3 0 41 -72 83 -161z m-3163 87 c146 -25 273 -48 283 -51 9 -4 62 -83 117 -176 113 -189 118 -199 99 -199 -42 1 -557 84 -579 94 -14 6 -222 332 -237 372 -5 14 -1 15 23 10 16 -3 148 -26 294 -50z m784 -146 c178 -29 305 -55 313 -63 8 -7 58 -90 112 -183 91 -156 97 -169 76 -172 -26 -4 -572 85 -592 96 -16 10 -223 342 -223 360 0 6 3 12 8 12 4 0 142 -23 306 -50z m1850 -213 l90 -175 -23 -63 c-51 -141 -205 -519 -212 -519 -4 0 -48 77 -99 170 -78 146 -90 175 -85 202 4 17 49 135 100 262 120 297 124 308 133 302 4 -2 47 -83 96 -179z m-1029 76 c138 -24 263 -45 278 -48 16 -3 32 -7 37 -10 8 -5 181 -325 193 -357 9 -24 7 -24 -217 16 -105 19 -236 42 -291 51 -55 9 -107 21 -116 26 -10 5 -39 48 -65 96 -26 49 -69 126 -96 173 -26 46 -48 90 -48 96 0 15 -18 17 325 -43z m-1444 -182 c90 -16 209 -37 264 -46 55 -9 113 -21 128 -27 21 -8 52 -51 129 -180 55 -93 98 -172 94 -175 -3 -4 -34 -1 -69 5 -34 7 -154 28 -266 48 -112 19 -214 39 -227 44 -21 8 -34 25 -99 130 -12 19 -47 75 -78 124 -57 89 -65 106 -48 106 4 0 82 -13 172 -29z m706 -121 c26 -5 143 -26 258 -45 116 -20 219 -43 230 -50 18 -11 97 -136 191 -299 l28 -49 -40 6 c-84 12 -552 97 -565 102 -8 3 -34 38 -58 78 -55 90 -78 127 -124 199 -20 32 -37 60 -37 63 0 8 65 6 117 -5z m2019 -241 l85 -166 -113 -287 c-62 -157 -115 -286 -118 -286 -13 0 -170 311 -170 337 0 15 42 135 94 265 52 130 99 253 106 273 7 20 16 35 22 33 5 -2 48 -78 94 -169z m-1031 52 c160 -27 297 -52 306 -55 16 -7 199 -326 199 -346 0 -13 -14 -12 -81 0 -30 6 -156 28 -281 50 -125 21 -236 44 -247 50 -11 6 -32 32 -47 58 -15 26 -58 99 -95 163 -38 63 -69 118 -69 122 0 11 6 10 315 -42z m-1283 -186 c139 -25 260 -48 270 -51 9 -2 24 -16 33 -30 41 -63 175 -297 175 -306 0 -13 -33 -9 -260 32 -311 55 -306 54 -344 113 -91 143 -166 268 -166 277 0 16 22 13 292 -35z m545 -95 c26 -5 149 -28 273 -51 124 -22 232 -45 241 -50 19 -10 201 -318 194 -329 -7 -11 -554 93 -583 111 -15 9 -202 309 -202 323 0 8 22 7 77 -4z m945 -179 c111 -22 235 -45 273 -51 39 -7 80 -18 92 -26 17 -11 193 -311 193 -330 0 -9 -255 36 -509 89 l-103 22 -90 155 c-50 85 -92 161 -95 168 -8 18 16 16 239 -27z"/>
 </g>

</svg>