<!DOCTYPE svg PUBLIC "-//W3C//DTD SVG 20010904//EN" "http://www.w3.org/TR/2001/REC-SVG-20010904/DTD/svg10.dtd">
<svg version="1.0" xmlns="http://www.w3.org/2000/svg" width="159px" height="158px" viewBox="0 0 1590 1580" preserveAspectRatio="xMidYMid meet">
<g id="layer1" fill="#000000" stroke="none">
 <path d="M180 1255 l0 -165 165 0 165 0 0 165 0 165 -165 0 -165 0 0 -165z"/>
 <path d="M640 1255 l0 -165 160 0 160 0 0 165 0 165 -160 0 -160 0 0 -165z"/>
 <path d="M1090 1255 l0 -165 165 0 165 0 0 165 0 165 -165 0 -165 0 0 -165z"/>
 <path d="M180 800 l0 -160 165 0 165 0 0 160 0 160 -165 0 -165 0 0 -160z"/>
 <path d="M640 800 l0 -160 160 0 160 0 0 160 0 160 -160 0 -160 0 0 -160z"/>
 <path d="M1090 800 l0 -160 165 0 165 0 0 160 0 160 -165 0 -165 0 0 -160z"/>
 <path d="M180 351 c0 -136 2 -160 16 -165 9 -3 80 -6 159 -6 121 0 144 2 149 16 3 9 6 83 6 165 l0 149 -165 0 -165 0 0 -159z"/>
 <path d="M640 345 l0 -165 160 0 160 0 0 165 0 165 -160 0 -160 0 0 -165z"/>
 <path d="M1090 345 l0 -165 159 0 c136 0 160 2 165 16 3 9 6 83 6 165 l0 149 -165 0 -165 0 0 -165z"/>
 </g>

</svg>